<svg xmlns="http://www.w3.org/2000/svg" width="42" height="44" viewBox="0 0 42 44" fill="none"><path d="M21.0007 0.998779C9.41991 0.998779 -0.000976562 10.4192 -0.000976562 21.9992C-0.000976562 33.58 9.42034 43.0013 21.0003 43.0013C32.5798 43.0013 42.0002 33.58 42.0002 21.9992C42.0006 10.4197 32.5802 0.998779 21.0007 0.998779ZM2.11835 21.9992C2.11835 19.2623 2.70536 16.6629 3.75324 14.3153L12.7604 38.9931C6.46219 35.9319 2.11835 29.4731 2.11835 21.9992ZM21.0007 40.8824C19.1472 40.8824 17.3582 40.6105 15.6666 40.113L21.3315 23.6511L27.1365 39.5517C27.1741 39.6455 27.2199 39.7311 27.271 39.8118C25.3083 40.5023 23.1995 40.8824 21.0007 40.8824ZM23.6023 13.1465C24.7388 13.0867 25.764 12.9667 25.764 12.9667C26.7809 12.8462 26.6617 11.3515 25.6431 11.4112C25.6431 11.4112 22.585 11.6508 20.6101 11.6508C18.7553 11.6508 15.6365 11.4112 15.6365 11.4112C14.6187 11.3515 14.5 12.9069 15.5173 12.9667C15.5173 12.9667 16.481 13.0867 17.4974 13.1465L20.439 21.207L16.3069 33.5996L9.43213 13.1469C10.5704 13.0876 11.5934 12.9671 11.5934 12.9671C12.6102 12.8471 12.4902 11.3515 11.472 11.4126C11.472 11.4126 8.41523 11.6522 6.43993 11.6522C6.08511 11.6522 5.66744 11.643 5.2249 11.6295C8.60028 6.50266 14.4044 3.11811 21.0007 3.11811C25.9172 3.11811 30.3924 4.9974 33.7512 8.0747C33.6695 8.07033 33.5905 8.05942 33.5059 8.05942C31.6519 8.05942 30.3356 9.67511 30.3356 11.4108C30.3356 12.9663 31.2325 14.2834 32.1896 15.8389C32.9084 17.0967 33.7464 18.7128 33.7464 21.0464C33.7464 22.663 33.1257 24.5379 32.3092 27.1504L30.426 33.4442L23.6023 13.1465ZM30.4927 38.3209L36.2602 21.6456C37.3387 18.9524 37.6961 16.7986 37.6961 14.8822C37.6961 14.1878 37.6507 13.5424 37.5687 12.9405C39.0438 15.6303 39.8831 18.7172 39.8822 22C39.8818 28.9655 36.1057 35.0477 30.4927 38.3209Z" fill="#0071C5"></path></svg>