<svg xmlns="http://www.w3.org/2000/svg" width="39" height="39" viewBox="0 0 39 39" fill="none"><path d="M34.8372 30.2891H11.0248C10.816 30.2891 10.6471 30.1202 10.6471 29.9114C10.6471 29.7027 10.816 29.5338 11.0248 29.5338H34.8372C36.1648 29.5338 37.2447 28.4536 37.2447 27.1259C37.2447 25.7982 36.1648 24.7184 34.8372 24.7184H11.0248C10.8474 24.7184 10.6939 24.5948 10.656 24.4215L5.69374 1.75531H1.37765C1.16891 1.75531 1 1.58639 1 1.37765C1 1.16891 1.16891 1 1.37765 1H5.99763C6.17502 1 6.32844 1.12355 6.36643 1.29689L11.3287 23.9631H34.8372C36.5812 23.9631 38 25.3818 38 27.1259C38 28.87 36.5812 30.2891 34.8372 30.2891Z" fill="#0071C5" stroke="#0071C5" stroke-width="0.7"></path><path d="M31.6048 38.01C30.0477 38.01 28.7812 36.7435 28.7812 35.1865C28.7812 33.6297 30.0477 32.3633 31.6048 32.3633C33.1615 32.3633 34.428 33.6297 34.428 35.1865C34.428 36.7435 33.1615 38.01 31.6048 38.01ZM31.6048 33.1186C30.4645 33.1186 29.5366 34.0461 29.5366 35.1865C29.5366 36.3268 30.4645 37.2547 31.6048 37.2547C32.7451 37.2547 33.6727 36.3268 33.6727 35.1865C33.6727 34.0461 32.7451 33.1186 31.6048 33.1186Z" fill="#0071C5" stroke="#0071C5" stroke-width="0.7"></path><path d="M17.1445 38.01C15.5878 38.01 14.3213 36.7435 14.3213 35.1865C14.3213 33.6297 15.5878 32.3633 17.1445 32.3633C18.7015 32.3633 19.968 33.6297 19.968 35.1865C19.968 36.7435 18.7015 38.01 17.1445 38.01ZM17.1445 33.1186C16.0041 33.1186 15.0766 34.0461 15.0766 35.1865C15.0766 36.3268 16.0041 37.2547 17.1445 37.2547C18.2848 37.2547 19.2127 36.3268 19.2127 35.1865C19.2127 34.0461 18.2848 33.1186 17.1445 33.1186Z" fill="#0071C5" stroke="#0071C5" stroke-width="0.7"></path><path d="M30.1154 24.7165H10.9742C10.7968 24.7165 10.6434 24.593 10.6054 24.4197L7.01179 8.00578C6.98708 7.89404 7.01474 7.7775 7.08629 7.68825C7.1582 7.599 7.26626 7.54736 7.38059 7.54736H36.2297C36.3533 7.54736 36.4694 7.60785 36.5399 7.70964C36.6103 7.81106 36.6269 7.94087 36.5838 8.05668L30.4694 24.4706C30.4141 24.6184 30.2732 24.7165 30.1154 24.7165ZM11.2781 23.9612H29.8531L35.6861 8.30267H7.84971L11.2781 23.9612Z" fill="#0071C5" stroke="#0071C5" stroke-width="0.7"></path><path d="M21.801 20.7269C21.7044 20.7269 21.6078 20.69 21.534 20.6162L18.4383 17.5202C18.2908 17.3726 18.2908 17.1336 18.4383 16.9861C18.5858 16.8386 18.8248 16.8386 18.9723 16.9861L21.8014 19.8156L24.6393 16.9858C24.7868 16.8386 25.0258 16.8386 25.1733 16.9865C25.3205 17.134 25.3205 17.3734 25.1726 17.5205L22.0677 20.6166C21.9939 20.69 21.8976 20.7269 21.801 20.7269Z" fill="#0071C5" stroke="#0071C5" stroke-width="0.7"></path><path d="M21.801 20.7269C21.5923 20.7269 21.4233 20.558 21.4233 20.3492V11.9148C21.4233 11.706 21.5923 11.5371 21.801 11.5371C22.0097 11.5371 22.1786 11.706 22.1786 11.9148V20.3492C22.1786 20.558 22.0097 20.7269 21.801 20.7269Z" fill="#0071C5" stroke="#0071C5" stroke-width="0.7"></path></svg>