<svg xmlns="http://www.w3.org/2000/svg" width="39" height="32" viewBox="0 0 39 32" fill="none"><path d="M37.4032 1H1.59677C1.26855 1 1 1.26855 1 1.59677V30.3613C1 30.6895 1.26855 30.9581 1.59677 30.9581H37.4032C37.7315 30.9581 38 30.6895 38 30.3613V1.59677C38 1.26855 37.7315 1 37.4032 1ZM36.8065 2.19355V8.34032H2.19355V2.19355H36.8065ZM2.19355 29.7645V9.53387H36.8065V29.7645H2.19355Z" fill="#0071C5" stroke="#0071C5" stroke-width="0.3"></path><path d="M3.65537 5.9831H24.5126C24.8408 5.9831 25.1094 5.71455 25.1094 5.38633C25.1094 5.0581 24.8408 4.78955 24.5126 4.78955H3.65537C3.32714 4.78955 3.05859 5.0581 3.05859 5.38633C3.05859 5.71455 3.32714 5.9831 3.65537 5.9831Z" fill="#0071C5" stroke="#0071C5" stroke-width="0.3"></path><path d="M34.6876 5.98334H34.9561C35.2844 5.98334 35.5529 5.71479 35.5529 5.38656V5.11801C35.5529 4.78979 35.2844 4.52124 34.9561 4.52124H34.6876C34.3594 4.52124 34.0908 4.78979 34.0908 5.11801V5.38656C34.0908 5.71479 34.3594 5.98334 34.6876 5.98334Z" fill="#0071C5" stroke="#0071C5" stroke-width="0.3"></path><path d="M31.2569 5.98334H31.5255C31.8537 5.98334 32.1223 5.71479 32.1223 5.38656V5.11801C32.1223 4.78979 31.8537 4.52124 31.5255 4.52124H31.2569C30.9287 4.52124 30.6602 4.78979 30.6602 5.11801V5.38656C30.6602 5.71479 30.8989 5.98334 31.2569 5.98334Z" fill="#0071C5" stroke="#0071C5" stroke-width="0.3"></path><path d="M27.4972 5.98334H27.7657C28.0939 5.98334 28.3625 5.71479 28.3625 5.38656V5.11801C28.3625 4.78979 28.0939 4.52124 27.7657 4.52124H27.4972C27.1689 4.52124 26.9004 4.78979 26.9004 5.11801V5.38656C26.9004 5.71479 27.1689 5.98334 27.4972 5.98334Z" fill="#0071C5" stroke="#0071C5" stroke-width="0.3"></path><path d="M14.6957 15.3228C14.457 15.0841 14.099 15.0841 13.8603 15.3228L10.2796 18.9035C10.1603 19.0228 10.1006 19.172 10.1006 19.3212C10.1006 19.4704 10.1603 19.6196 10.2796 19.739L13.8603 23.3196C13.9796 23.439 14.1288 23.4986 14.278 23.4986C14.4272 23.4986 14.5764 23.439 14.6957 23.3196C14.9345 23.0809 14.9345 22.7228 14.6957 22.4841L11.5328 19.3212L14.6957 16.1583C14.9345 15.9196 14.9345 15.5615 14.6957 15.3228Z" fill="#0071C5" stroke="#0071C5" stroke-width="0.3"></path><path d="M21.2597 13.8605C20.9314 13.771 20.6032 13.9202 20.5137 14.2484L17.3508 24.0654C17.2613 24.3936 17.4105 24.7218 17.7387 24.8114C17.7984 24.8412 17.858 24.8412 17.9177 24.8412C18.1564 24.8412 18.3951 24.692 18.4847 24.4234L21.6476 14.6065C21.7371 14.2783 21.5879 13.9501 21.2597 13.8605Z" fill="#0071C5" stroke="#0071C5" stroke-width="0.3"></path><path d="M25.1395 15.3228C24.9008 15.0841 24.5427 15.0841 24.304 15.3228C24.0653 15.5615 24.0653 15.9196 24.304 16.1583L27.4669 19.3212L24.304 22.4841C24.0653 22.7228 24.0653 23.0809 24.304 23.3196C24.4234 23.439 24.5726 23.4986 24.7218 23.4986C24.871 23.4986 25.0202 23.439 25.1395 23.3196L28.7202 19.739C28.8395 19.6196 28.8992 19.4704 28.8992 19.3212C28.8992 19.172 28.8395 19.0228 28.7202 18.9035L25.1395 15.3228Z" fill="#0071C5" stroke="#0071C5" stroke-width="0.3"></path></svg>