<svg xmlns="http://www.w3.org/2000/svg" width="38" height="36" viewBox="0 0 38 36" fill="none"><path d="M19 18.5364C18.2746 18.5364 17.5656 18.7515 16.9624 19.1545C16.3593 19.5574 15.8893 20.1302 15.6117 20.8004C15.3341 21.4705 15.2615 22.2079 15.403 22.9193C15.5445 23.6307 15.8938 24.2842 16.4067 24.7971C16.9196 25.31 17.5731 25.6593 18.2845 25.8008C18.9959 25.9423 19.7333 25.8697 20.4034 25.5921C21.0736 25.3145 21.6464 24.8445 22.0493 24.2413C22.4523 23.6382 22.6674 22.9292 22.6674 22.2038C22.6674 21.2312 22.281 20.2983 21.5932 19.6105C20.9055 18.9228 19.9726 18.5364 19 18.5364ZM19 25.0282C18.4414 25.0282 17.8953 24.8625 17.4308 24.5522C16.9664 24.2418 16.6044 23.8007 16.3906 23.2847C16.1768 22.7686 16.1209 22.2007 16.2299 21.6528C16.3389 21.1049 16.6079 20.6017 17.0028 20.2067C17.3978 19.8117 17.9011 19.5427 18.449 19.4337C18.9968 19.3248 19.5647 19.3807 20.0808 19.5945C20.5969 19.8082 21.038 20.1702 21.3483 20.6347C21.6587 21.0992 21.8243 21.6452 21.8243 22.2038C21.8243 22.9529 21.5268 23.6713 20.9971 24.2009C20.4674 24.7306 19.749 25.0282 19 25.0282Z" fill="#0071C5" stroke="#0071C5" stroke-width="0.5"></path><path d="M26.9673 19.6745L25.6605 19.4637L26.4193 18.4098C26.619 18.1427 26.7162 17.8127 26.6929 17.48C26.6697 17.1473 26.5277 16.834 26.2929 16.5972L24.6067 14.911C24.3768 14.6793 24.0707 14.5388 23.7452 14.5155C23.4196 14.4923 23.0967 14.5879 22.8362 14.7845L21.7402 15.5433L21.5294 14.2787C21.489 13.9468 21.3304 13.6406 21.0827 13.4161C20.8349 13.1916 20.5147 13.0639 20.1805 13.0562H17.8198C17.4894 13.0536 17.1696 13.1724 16.9209 13.3899C16.6723 13.6075 16.5121 13.9087 16.4708 14.2365L16.2601 15.5433L15.2062 14.7845C14.9391 14.5848 14.6091 14.4877 14.2764 14.5109C13.9437 14.5341 13.6304 14.6761 13.3936 14.911L11.7074 16.5972C11.4757 16.8271 11.3352 17.1331 11.3119 17.4587C11.2887 17.7843 11.3842 18.1072 11.5809 18.3677L12.3397 19.4637L11.0751 19.6745C10.7432 19.7149 10.437 19.8735 10.2125 20.1212C9.98803 20.3689 9.86026 20.6892 9.85258 21.0234V23.3841C9.84999 23.7144 9.96874 24.0343 10.1863 24.2829C10.4039 24.5316 10.7051 24.6917 11.0329 24.733L12.3397 24.9438L11.5809 25.9976C11.3812 26.2648 11.2841 26.5948 11.3073 26.9275C11.3305 27.2602 11.4725 27.5735 11.7074 27.8103L13.3936 29.4965C13.5185 29.6284 13.6687 29.7338 13.8353 29.8062C14.0019 29.8786 14.1815 29.9167 14.3631 29.918C14.6507 29.9241 14.9322 29.8352 15.1641 29.6651L16.2601 28.9063L16.4708 30.1709C16.5113 30.5028 16.6699 30.809 16.9176 31.0335C17.1653 31.258 17.4856 31.3858 17.8198 31.3934H20.1805C20.5173 31.3949 20.8426 31.2703 21.0922 31.0441C21.3419 30.8178 21.4978 30.5064 21.5294 30.1709L21.7402 28.8642L22.794 29.5808C23.0612 29.7805 23.3911 29.8776 23.7239 29.8544C24.0566 29.8312 24.3699 29.6892 24.6067 29.4543L26.2929 27.7681C26.5246 27.5383 26.6651 27.2322 26.6883 26.9066C26.7116 26.5811 26.616 26.2581 26.4193 25.9976L25.6605 24.9438L26.9252 24.733C27.257 24.6926 27.5632 24.534 27.7877 24.2863C28.0122 24.0386 28.14 23.7183 28.1477 23.3841V21.0234C28.1503 20.693 28.0315 20.3732 27.8139 20.1245C27.5964 19.8759 27.2951 19.7157 26.9673 19.6745ZM27.3046 23.3841C27.2964 23.5086 27.246 23.6266 27.1617 23.7186C27.0774 23.8105 26.9642 23.871 26.8409 23.8899L24.9018 24.2272C24.8307 24.2407 24.7642 24.2722 24.7089 24.3188C24.6535 24.3654 24.6111 24.4255 24.5857 24.4933C24.5603 24.561 24.5527 24.6342 24.5638 24.7057C24.5749 24.7772 24.6041 24.8447 24.6488 24.9016L25.7449 26.5457C25.8222 26.6435 25.8607 26.7665 25.8529 26.891C25.8451 27.0155 25.7916 27.1327 25.7027 27.2201L24.0165 28.9063C23.9221 28.9984 23.7977 29.0533 23.6661 29.0611C23.5344 29.0688 23.4044 29.0288 23.2999 28.9485L21.698 27.8103C21.6411 27.7656 21.5736 27.7363 21.5021 27.7253C21.4306 27.7142 21.3574 27.7217 21.2897 27.7471C21.2219 27.7726 21.1618 27.815 21.1152 27.8703C21.0686 27.9257 21.037 27.9921 21.0235 28.0632L20.6863 30.0445C20.6757 30.1712 20.6178 30.2893 20.524 30.3752C20.4303 30.4612 20.3076 30.5086 20.1805 30.5082H17.8198C17.6889 30.4984 17.5658 30.442 17.4729 30.3492C17.3801 30.2563 17.3237 30.1333 17.3139 30.0023L16.9767 28.0632C16.9679 27.9898 16.9398 27.9199 16.8954 27.8607C16.851 27.8015 16.7918 27.7551 16.7238 27.726H16.5552L16.3022 27.8103L14.6582 28.9906C14.5572 29.06 14.4359 29.0935 14.3137 29.0859C14.1914 29.0782 14.0753 29.0299 13.9837 28.9485L12.2975 27.2623C12.2055 27.1679 12.1505 27.0435 12.1428 26.9118C12.135 26.7802 12.175 26.6502 12.2554 26.5457L13.3936 24.9438C13.4383 24.8869 13.4675 24.8194 13.4786 24.7479C13.4897 24.6764 13.4821 24.6032 13.4567 24.5354C13.4313 24.4677 13.3889 24.4076 13.3335 24.361C13.2782 24.3144 13.2117 24.2828 13.1406 24.2693L11.1594 23.9321C11.0326 23.9215 10.9146 23.8635 10.8286 23.7698C10.7427 23.6761 10.6952 23.5534 10.6957 23.4262V21.0234C10.7038 20.8989 10.7542 20.7809 10.8385 20.6889C10.9229 20.5969 11.036 20.5365 11.1594 20.5176L13.0985 20.1803C13.1696 20.1668 13.236 20.1352 13.2914 20.0886C13.3467 20.042 13.3891 19.9819 13.4146 19.9142C13.44 19.8464 13.4475 19.7733 13.4364 19.7017C13.4254 19.6302 13.3961 19.5628 13.3514 19.5058L12.2554 17.8618C12.178 17.764 12.1395 17.641 12.1473 17.5165C12.1551 17.392 12.2086 17.2748 12.2975 17.1873L13.9837 15.5012C14.0781 15.4091 14.2025 15.3541 14.3342 15.3464C14.4658 15.3387 14.5958 15.3786 14.7004 15.459L16.3022 16.5972C16.3591 16.6419 16.4266 16.6712 16.4981 16.6822C16.5697 16.6933 16.6428 16.6857 16.7106 16.6603C16.7783 16.6349 16.8384 16.5925 16.885 16.5371C16.9316 16.4818 16.9632 16.4153 16.9767 16.3442L17.3139 14.363C17.3245 14.2363 17.3825 14.1182 17.4762 14.0322C17.57 13.9463 17.6926 13.8988 17.8198 13.8993H20.1805C20.3114 13.909 20.4345 13.9654 20.5273 14.0583C20.6201 14.1511 20.6766 14.2742 20.6863 14.4051L21.0235 16.3442C21.037 16.4153 21.0686 16.4818 21.1152 16.5371C21.1618 16.5925 21.2219 16.6349 21.2897 16.6603C21.3574 16.6857 21.4306 16.6933 21.5021 16.6822C21.5736 16.6712 21.6411 16.6419 21.698 16.5972L23.342 15.4169C23.4399 15.3395 23.5629 15.301 23.6874 15.3088C23.8118 15.3166 23.9291 15.3701 24.0165 15.459L25.7027 17.1452C25.7948 17.2396 25.8497 17.364 25.8575 17.4956C25.8652 17.6273 25.8252 17.7573 25.7449 17.8618L24.6067 19.4637C24.562 19.5206 24.5327 19.5881 24.5216 19.6596C24.5106 19.7311 24.5181 19.8043 24.5435 19.872C24.5689 19.9398 24.6114 19.9999 24.6667 20.0465C24.7221 20.0931 24.7885 20.1247 24.8596 20.1382L26.8409 20.4754C26.9676 20.486 27.0857 20.5439 27.1716 20.6377C27.2575 20.7314 27.305 20.8541 27.3046 20.9813V23.3841Z" fill="#0071C5" stroke="#0071C5" stroke-width="0.5"></path><path d="M32.363 1H5.637C4.40719 1 3.22775 1.48854 2.35815 2.35815C1.48854 3.22775 1 4.40719 1 5.637V30.7611C1 31.9909 1.48854 33.1704 2.35815 34.04C3.22775 34.9096 4.40719 35.3981 5.637 35.3981H32.363C33.5928 35.3981 34.7722 34.9096 35.6419 34.04C36.5115 33.1704 37 31.9909 37 30.7611V5.637C37 4.40719 36.5115 3.22775 35.6419 2.35815C34.7722 1.48854 33.5928 1 32.363 1ZM32.363 34.5972H5.637C4.63079 34.5972 3.6658 34.1975 2.9543 33.486C2.24281 32.7745 1.84309 31.8095 1.84309 30.8033V9.43091H36.1569V30.7611C36.1569 31.7673 35.7572 32.7323 35.0457 33.4438C34.3342 34.1553 33.3692 34.555 32.363 34.555V34.5972ZM36.1569 8.58782H1.84309V5.637C1.84309 4.6308 2.24281 3.6658 2.9543 2.9543C3.6658 2.24281 4.63079 1.84309 5.637 1.84309H32.363C33.3692 1.84309 34.3342 2.24281 35.0457 2.9543C35.7572 3.6658 36.1569 4.6308 36.1569 5.637V8.58782Z" fill="#0071C5" stroke="#0071C5" stroke-width="0.5"></path><path d="M8.29263 4.79395H6.47998V5.63704H8.29263V4.79395Z" fill="#0071C5" stroke="#0071C5" stroke-width="0.5"></path></svg>