<svg xmlns="http://www.w3.org/2000/svg" width="53" height="42" viewBox="0 0 53 42" fill="none"><path d="M42.7706 11.1943C41.6444 11.1943 40.5616 11.392 39.5453 11.7829C37.5377 9.49701 34.3772 8.84948 31.7607 9.86033C30.0299 4.60916 25.0808 1 19.4888 1C13.1549 1 7.74133 5.63678 6.74775 11.8451C3.29472 13.2081 1 16.5594 1 20.2985C1 25.3231 5.08776 29.4108 10.1123 29.4108H13.8949V31.0696C13.8949 31.3631 14.1066 31.6136 14.3962 31.6625L17.0376 32.107C17.1632 32.4639 17.3064 32.8075 17.4649 33.1339L15.9059 35.3206C15.7353 35.5601 15.7627 35.8876 15.9708 36.095L19.1683 39.2851C19.3765 39.4933 19.7045 39.5203 19.9428 39.3485L22.1232 37.7891C22.4531 37.9479 22.7983 38.0912 23.1548 38.2172L23.5923 40.857C23.64 41.147 23.8912 41.3599 24.1851 41.3599H28.7053C28.9988 41.3599 29.2492 41.1482 29.2981 40.8586L29.7431 38.2172C30.0933 38.0927 30.4361 37.9495 30.768 37.7891L32.9476 39.3485C33.1867 39.5203 33.5143 39.4933 33.7221 39.2851L36.9199 36.095C37.1281 35.8876 37.1555 35.5601 36.9849 35.3206L35.4259 33.1339C35.584 32.8079 35.7268 32.4647 35.8532 32.1074L38.5021 31.6625C38.7916 31.614 39.0037 31.3631 39.0037 31.0696V29.4108H42.7706C47.7995 29.4108 51.8908 25.3231 51.8908 20.2985C51.8908 15.2786 47.7995 11.1943 42.7706 11.1943ZM37.8016 30.5609L35.2979 30.9816C35.0748 31.0192 34.8917 31.1784 34.824 31.394C34.6538 31.9352 34.4421 32.442 34.1951 32.9002C34.0864 33.1018 34.1016 33.3479 34.2347 33.5346L35.7103 35.6039L33.2333 38.0747L31.171 36.5994C30.9851 36.4664 30.7398 36.4491 30.539 36.5575C30.062 36.8111 29.5541 37.0232 29.0297 37.1884C28.8141 37.2561 28.6548 37.4388 28.6172 37.6619L28.1969 40.1577H24.6946L24.2814 37.6634C24.2446 37.44 24.0849 37.2561 23.8689 37.1884C23.3308 37.0189 22.8206 36.8068 22.3518 36.5575C22.1502 36.4495 21.9053 36.4664 21.7198 36.5994L19.6571 38.0747L17.1804 35.6039L18.6561 33.5346C18.7892 33.3479 18.8044 33.1018 18.6956 32.9002C18.4479 32.4404 18.2362 31.9337 18.0672 31.3944C17.9995 31.1788 17.8163 31.0192 17.5933 30.9816L15.097 30.5613C15.097 30.4671 15.097 26.947 15.097 27.066L17.5933 26.6453C17.8163 26.6078 17.9991 26.4481 18.0668 26.2325C18.235 25.6972 18.4471 25.1869 18.6972 24.7161C18.8044 24.5146 18.788 24.27 18.6553 24.0845L17.1812 22.0226L19.6571 19.5526L21.7202 21.0275C21.9076 21.1625 22.1565 21.1774 22.358 21.0659C22.8245 20.8107 23.3301 20.6006 23.8611 20.4413C24.081 20.3756 24.2442 20.1901 24.2814 19.9635L24.695 17.4614H28.1965L28.6172 19.9651C28.6552 20.1909 28.818 20.3756 29.0375 20.4413C29.556 20.5971 30.0592 20.8072 30.5327 21.0662C30.7351 21.1766 30.9832 21.1625 31.171 21.0275L33.2333 19.5526L35.7095 22.0226L34.2354 24.0845C34.1028 24.27 34.0863 24.5146 34.1936 24.7161C34.4424 25.1849 34.6549 25.6956 34.824 26.2329C34.8917 26.4485 35.0748 26.6078 35.2975 26.6453L37.8016 27.066C37.8016 27.1462 37.8016 30.6799 37.8016 30.5609ZM42.7706 28.2087H39.0037V26.5577C39.0037 26.2642 38.7916 26.0137 38.5024 25.9648L35.8532 25.5195C35.7272 25.163 35.5839 24.8179 35.4247 24.4876L36.9841 22.3067C37.1555 22.0676 37.1281 21.7393 36.9199 21.5315L33.722 18.3419C33.5135 18.1348 33.1867 18.1078 32.9476 18.2789L30.7711 19.8355C30.438 19.6716 30.0937 19.528 29.7423 19.4063L29.2981 16.7609C29.2496 16.4713 28.9988 16.2592 28.7053 16.2592H24.1851C23.8908 16.2592 23.64 16.4721 23.5922 16.7625L23.1551 19.4059C22.7978 19.5291 22.4519 19.6727 22.1197 19.8359L19.9424 18.2789C19.7048 18.1078 19.3765 18.1348 19.1683 18.3422L15.9708 21.5319C15.7626 21.7397 15.7352 22.0676 15.9066 22.3067L17.4661 24.4876C17.3064 24.8186 17.1632 25.1638 17.0376 25.5199L14.3961 25.9648C14.1066 26.0138 13.8949 26.2642 13.8949 26.5577V28.2087H10.1123C5.75064 28.2087 2.20212 24.6602 2.20212 20.2985C2.20212 16.9468 4.32701 13.9543 7.48929 12.8516C7.70373 12.7769 7.85791 12.5875 7.88726 12.3625C8.64643 6.57009 13.6342 2.20215 19.4888 2.20215C24.7744 2.20215 29.4264 5.75654 30.8016 10.8461C30.8489 11.0214 30.9733 11.1662 31.14 11.2394C31.306 11.3125 31.4969 11.3055 31.6585 11.2229C33.9435 10.0371 37.0759 10.5208 38.8882 12.8751C39.0569 13.0946 39.3551 13.1713 39.6094 13.0574C40.5921 12.6188 41.6557 12.3965 42.7706 12.3965C47.1365 12.3965 50.6886 15.9415 50.6886 20.2985C50.6886 24.6602 47.1366 28.2087 42.7706 28.2087Z" fill="#0071C5" stroke="#0071C5" stroke-width="0.4"></path><path d="M26.4488 22.5667C23.0032 22.5667 20.2002 25.367 20.2002 28.809C20.2002 32.2546 23.0032 35.0581 26.4488 35.0581C29.8944 35.0581 32.6975 32.2546 32.6975 28.809C32.6975 25.367 29.8944 22.5667 26.4488 22.5667ZM26.4488 33.8559C23.6661 33.8559 21.4023 31.5917 21.4023 28.809C21.4023 26.0299 23.6661 23.7688 26.4488 23.7688C29.2315 23.7688 31.4953 26.0299 31.4953 28.809C31.4953 31.5917 29.2315 33.8559 26.4488 33.8559Z" fill="#0071C5" stroke="#0071C5" stroke-width="0.4"></path></svg>