<svg xmlns="http://www.w3.org/2000/svg" width="37" height="37" viewBox="0 0 37 37" fill="none"><path d="M25.0908 24.9355C25.5178 24.9355 25.8633 24.5896 25.8633 24.1629V16.5516L27.7984 18.9251C27.9515 19.1125 28.1733 19.2095 28.3981 19.2095C28.5694 19.2095 28.7421 19.1525 28.8855 19.0356C29.2159 18.7663 29.2657 18.2797 28.9964 17.9489L25.6898 13.8932C25.6722 13.8716 25.6473 13.8615 25.6279 13.8423C25.6093 13.8237 25.5997 13.7996 25.5789 13.7826C25.5588 13.7663 25.5341 13.762 25.513 13.7479C25.4682 13.7182 25.4234 13.6944 25.3743 13.6749C25.3287 13.6566 25.2846 13.6425 25.2372 13.6334C25.1883 13.6238 25.1412 13.6202 25.0913 13.6201C25.0415 13.6202 24.9943 13.6238 24.9454 13.6334C24.898 13.6425 24.8538 13.6567 24.8081 13.6749C24.759 13.6943 24.7143 13.718 24.6695 13.7476C24.648 13.7618 24.6231 13.7661 24.6027 13.7826C24.5817 13.7998 24.572 13.824 24.5533 13.8428C24.5341 13.8618 24.5093 13.8718 24.4918 13.8932L21.1852 17.9489C20.9159 18.2797 20.9657 18.7663 21.2961 19.0356C21.4394 19.1525 21.6122 19.2095 21.7834 19.2095C22.0083 19.2095 22.2301 19.1125 22.3832 18.9251L24.3183 16.5516V24.1629C24.3183 24.5896 24.6638 24.9355 25.0908 24.9355Z" fill="white"></path><path d="M36.2275 6.22274H4.69469C4.26769 6.22274 3.92217 6.56864 3.92217 6.99526C3.92217 7.42188 4.26769 7.76777 4.69469 7.76777H35.455V32.6429C35.455 34.1932 34.1936 35.4542 32.6433 35.4542H4.35671C2.8064 35.4542 1.54503 34.1932 1.54503 32.6429V4.35671C1.54503 2.8064 2.8064 1.54503 4.35671 1.54503H32.6433C34.1936 1.54503 35.455 2.8064 35.455 4.35671C35.455 4.78333 35.8005 5.12923 36.2275 5.12923C36.6545 5.12923 37 4.78333 37 4.35671C37 1.9543 35.0453 0 32.6433 0H4.35671C1.95467 0 0 1.9543 0 4.35671V32.6429C0 35.0449 1.95467 36.9992 4.35671 36.9992H32.6433C35.0453 36.9992 37 35.0449 37 32.6429V6.99526C37 6.56864 36.6545 6.22274 36.2275 6.22274Z" fill="white"></path><path d="M4.69537 3.13965C4.26837 3.13965 3.92285 3.48555 3.92285 3.91216C3.92285 4.33878 4.26837 4.68468 4.69537 4.68468H6.37091C6.79791 4.68468 7.14342 4.33878 7.14342 3.91216C7.14342 3.48555 6.79791 3.13965 6.37091 3.13965H4.69537Z" fill="white"></path><path d="M9.31841 3.13965C8.89142 3.13965 8.5459 3.48555 8.5459 3.91216C8.5459 4.33878 8.89142 4.68468 9.31841 4.68468H10.994C11.421 4.68468 11.7665 4.33878 11.7665 3.91216C11.7665 3.48555 11.421 3.13965 10.994 3.13965H9.31841Z" fill="white"></path><path d="M31.7686 3.13965C31.3416 3.13965 30.9961 3.48555 30.9961 3.91216C30.9961 4.33878 31.3416 4.68468 31.7686 4.68468H33.4442C33.8711 4.68468 34.2167 4.33878 34.2167 3.91216C34.2167 3.48555 33.8711 3.13965 33.4442 3.13965H31.7686Z" fill="white"></path><path d="M6.23248 11.6197H14.8139C15.2409 11.6197 15.5864 11.2738 15.5864 10.8472C15.5864 10.4206 15.2409 10.0747 14.8139 10.0747H6.23248C4.65652 10.0747 3.37402 11.3568 3.37402 12.9328V30.0756C3.37402 31.6516 4.65652 32.9337 6.23248 32.9337H30.8541C32.4301 32.9337 33.7118 31.6516 33.7118 30.0756V19.0269C33.7118 16.4849 32.6247 14.0535 30.7304 12.3564C28.8368 10.6609 26.2907 9.84914 23.7438 10.1309C19.6323 10.5854 16.3182 13.8992 15.864 18.0107C15.5834 20.558 16.3944 23.1045 18.0895 24.9977C19.7869 26.892 22.2177 27.9787 24.76 27.9787C25.187 27.9787 25.5325 27.6328 25.5325 27.2062C25.5325 26.7796 25.187 26.4337 24.76 26.4337C22.6567 26.4337 20.6447 25.5344 19.2408 23.9668C17.8172 22.3772 17.1631 20.3226 17.4 18.1805C17.7757 14.7818 20.515 12.0422 23.9128 11.6669C26.0553 11.4292 28.1103 12.0837 29.6991 13.5073C31.2675 14.912 32.1668 16.9236 32.1668 19.0269V30.0756C32.1668 30.7995 31.5776 31.3887 30.8541 31.3887H6.23248C5.50825 31.3887 4.91905 30.7995 4.91905 30.0756V12.9328C4.91905 12.2089 5.50825 11.6197 6.23248 11.6197Z" fill="white"></path></svg>