<svg xmlns="http://www.w3.org/2000/svg" width="25" height="18" viewBox="0 0 25 18" fill="none"><path d="M0.166 8.772C0.166 6.23467 0.620667 4.24733 1.53 2.81C2.454 1.37267 3.97933 0.653999 6.106 0.653999C8.23267 0.653999 9.75067 1.37267 10.66 2.81C11.584 4.24733 12.046 6.23467 12.046 8.772C12.046 11.324 11.584 13.326 10.66 14.778C9.75067 16.23 8.23267 16.956 6.106 16.956C3.97933 16.956 2.454 16.23 1.53 14.778C0.620667 13.326 0.166 11.324 0.166 8.772ZM9.01 8.772C9.01 7.68667 8.93667 6.77733 8.79 6.044C8.658 5.296 8.37933 4.68733 7.954 4.218C7.54333 3.74867 6.92733 3.514 6.106 3.514C5.28467 3.514 4.66133 3.74867 4.236 4.218C3.82533 4.68733 3.54667 5.296 3.4 6.044C3.268 6.77733 3.202 7.68667 3.202 8.772C3.202 9.88667 3.268 10.8253 3.4 11.588C3.532 12.336 3.81067 12.9447 4.236 13.414C4.66133 13.8687 5.28467 14.096 6.106 14.096C6.92733 14.096 7.55067 13.8687 7.976 13.414C8.40133 12.9447 8.68 12.336 8.812 11.588C8.944 10.8253 9.01 9.88667 9.01 8.772ZM13.1347 3.8V0.961999H18.4367V17H15.2687V3.8H13.1347ZM22.3154 17.154C21.758 17.154 21.296 16.9853 20.9294 16.648C20.5774 16.296 20.4014 15.8633 20.4014 15.35C20.4014 14.8367 20.5774 14.4113 20.9294 14.074C21.296 13.722 21.758 13.546 22.3154 13.546C22.858 13.546 23.3054 13.722 23.6574 14.074C24.0094 14.4113 24.1854 14.8367 24.1854 15.35C24.1854 15.8633 24.0094 16.296 23.6574 16.648C23.3054 16.9853 22.858 17.154 22.3154 17.154Z" fill="#5B5B5B"></path></svg>