<svg xmlns="http://www.w3.org/2000/svg" width="29" height="18" viewBox="0 0 29 18" fill="none"><path d="M0.166 8.772C0.166 6.23467 0.620667 4.24733 1.53 2.81C2.454 1.37267 3.97933 0.653999 6.106 0.653999C8.23267 0.653999 9.75067 1.37267 10.66 2.81C11.584 4.24733 12.046 6.23467 12.046 8.772C12.046 11.324 11.584 13.326 10.66 14.778C9.75067 16.23 8.23267 16.956 6.106 16.956C3.97933 16.956 2.454 16.23 1.53 14.778C0.620667 13.326 0.166 11.324 0.166 8.772ZM9.01 8.772C9.01 7.68667 8.93667 6.77733 8.79 6.044C8.658 5.296 8.37933 4.68733 7.954 4.218C7.54333 3.74867 6.92733 3.514 6.106 3.514C5.28467 3.514 4.66133 3.74867 4.236 4.218C3.82533 4.68733 3.54667 5.296 3.4 6.044C3.268 6.77733 3.202 7.68667 3.202 8.772C3.202 9.88667 3.268 10.8253 3.4 11.588C3.532 12.336 3.81067 12.9447 4.236 13.414C4.66133 13.8687 5.28467 14.096 6.106 14.096C6.92733 14.096 7.55067 13.8687 7.976 13.414C8.40133 12.9447 8.68 12.336 8.812 11.588C8.944 10.8253 9.01 9.88667 9.01 8.772ZM14.4767 13.524C15.8847 12.3507 17.0067 11.3753 17.8427 10.598C18.6787 9.806 19.3753 8.98467 19.9327 8.134C20.49 7.28333 20.7687 6.44733 20.7687 5.626C20.7687 4.878 20.5927 4.29133 20.2407 3.866C19.8887 3.44067 19.346 3.228 18.6127 3.228C17.8793 3.228 17.3147 3.47733 16.9187 3.976C16.5227 4.46 16.3173 5.12733 16.3027 5.978H13.3107C13.3693 4.218 13.89 2.88333 14.8727 1.974C15.87 1.06467 17.1313 0.609999 18.6567 0.609999C20.3287 0.609999 21.612 1.05733 22.5067 1.952C23.4013 2.832 23.8487 3.998 23.8487 5.45C23.8487 6.594 23.5407 7.68667 22.9247 8.728C22.3087 9.76933 21.6047 10.6787 20.8127 11.456C20.0207 12.2187 18.9867 13.1427 17.7107 14.228H24.2007V16.78H13.3327V14.492L14.4767 13.524ZM26.9775 17.154C26.4201 17.154 25.9581 16.9853 25.5915 16.648C25.2395 16.296 25.0635 15.8633 25.0635 15.35C25.0635 14.8367 25.2395 14.4113 25.5915 14.074C25.9581 13.722 26.4201 13.546 26.9775 13.546C27.5201 13.546 27.9675 13.722 28.3195 14.074C28.6715 14.4113 28.8475 14.8367 28.8475 15.35C28.8475 15.8633 28.6715 16.296 28.3195 16.648C27.9675 16.9853 27.5201 17.154 26.9775 17.154Z" fill="#5B5B5B"></path></svg>