<svg xmlns="http://www.w3.org/2000/svg" width="30" height="18" viewBox="0 0 30 18" fill="none"><path d="M0.166 8.772C0.166 6.23467 0.620667 4.24733 1.53 2.81C2.454 1.37267 3.97933 0.653999 6.106 0.653999C8.23267 0.653999 9.75067 1.37267 10.66 2.81C11.584 4.24733 12.046 6.23467 12.046 8.772C12.046 11.324 11.584 13.326 10.66 14.778C9.75067 16.23 8.23267 16.956 6.106 16.956C3.97933 16.956 2.454 16.23 1.53 14.778C0.620667 13.326 0.166 11.324 0.166 8.772ZM9.01 8.772C9.01 7.68667 8.93667 6.77733 8.79 6.044C8.658 5.296 8.37933 4.68733 7.954 4.218C7.54333 3.74867 6.92733 3.514 6.106 3.514C5.28467 3.514 4.66133 3.74867 4.236 4.218C3.82533 4.68733 3.54667 5.296 3.4 6.044C3.268 6.77733 3.202 7.68667 3.202 8.772C3.202 9.88667 3.268 10.8253 3.4 11.588C3.532 12.336 3.81067 12.9447 4.236 13.414C4.66133 13.8687 5.28467 14.096 6.106 14.096C6.92733 14.096 7.55067 13.8687 7.976 13.414C8.40133 12.9447 8.68 12.336 8.812 11.588C8.944 10.8253 9.01 9.88667 9.01 8.772ZM13.5527 5.186C13.626 3.71933 14.1393 2.59 15.0927 1.798C16.0607 0.991332 17.3293 0.587999 18.8987 0.587999C19.9693 0.587999 20.886 0.778666 21.6487 1.16C22.4113 1.52667 22.9833 2.03267 23.3647 2.678C23.7607 3.30867 23.9587 4.02733 23.9587 4.834C23.9587 5.758 23.7167 6.54267 23.2327 7.188C22.7633 7.81867 22.1987 8.244 21.5387 8.464V8.552C22.3893 8.816 23.0493 9.28533 23.5187 9.96C24.0027 10.6347 24.2447 11.5 24.2447 12.556C24.2447 13.436 24.0393 14.2207 23.6287 14.91C23.2327 15.5993 22.6387 16.142 21.8467 16.538C21.0693 16.9193 20.1307 17.11 19.0307 17.11C17.3733 17.11 16.024 16.692 14.9827 15.856C13.9413 15.02 13.3913 13.788 13.3327 12.16H16.3247C16.354 12.8787 16.596 13.458 17.0507 13.898C17.52 14.3233 18.158 14.536 18.9647 14.536C19.7127 14.536 20.2847 14.3307 20.6807 13.92C21.0913 13.4947 21.2967 12.952 21.2967 12.292C21.2967 11.412 21.018 10.7813 20.4607 10.4C19.9033 10.0187 19.038 9.828 17.8647 9.828H17.2267V7.298H17.8647C19.9473 7.298 20.9887 6.60133 20.9887 5.208C20.9887 4.57733 20.798 4.086 20.4167 3.734C20.05 3.382 19.5147 3.206 18.8107 3.206C18.1213 3.206 17.586 3.39667 17.2047 3.778C16.838 4.14467 16.6253 4.614 16.5667 5.186H13.5527ZM27.5146 17.154C26.9572 17.154 26.4952 16.9853 26.1286 16.648C25.7766 16.296 25.6006 15.8633 25.6006 15.35C25.6006 14.8367 25.7766 14.4113 26.1286 14.074C26.4952 13.722 26.9572 13.546 27.5146 13.546C28.0572 13.546 28.5046 13.722 28.8566 14.074C29.2086 14.4113 29.3846 14.8367 29.3846 15.35C29.3846 15.8633 29.2086 16.296 28.8566 16.648C28.5046 16.9853 28.0572 17.154 27.5146 17.154Z" fill="black"></path></svg>