<svg xmlns="http://www.w3.org/2000/svg" width="31" height="18" viewBox="0 0 31 18" fill="none"><path d="M0.166 8.772C0.166 6.23467 0.620667 4.24733 1.53 2.81C2.454 1.37267 3.97933 0.653999 6.106 0.653999C8.23267 0.653999 9.75067 1.37267 10.66 2.81C11.584 4.24733 12.046 6.23467 12.046 8.772C12.046 11.324 11.584 13.326 10.66 14.778C9.75067 16.23 8.23267 16.956 6.106 16.956C3.97933 16.956 2.454 16.23 1.53 14.778C0.620667 13.326 0.166 11.324 0.166 8.772ZM9.01 8.772C9.01 7.68667 8.93667 6.77733 8.79 6.044C8.658 5.296 8.37933 4.68733 7.954 4.218C7.54333 3.74867 6.92733 3.514 6.106 3.514C5.28467 3.514 4.66133 3.74867 4.236 4.218C3.82533 4.68733 3.54667 5.296 3.4 6.044C3.268 6.77733 3.202 7.68667 3.202 8.772C3.202 9.88667 3.268 10.8253 3.4 11.588C3.532 12.336 3.81067 12.9447 4.236 13.414C4.66133 13.8687 5.28467 14.096 6.106 14.096C6.92733 14.096 7.55067 13.8687 7.976 13.414C8.40133 12.9447 8.68 12.336 8.812 11.588C8.944 10.8253 9.01 9.88667 9.01 8.772ZM13.3767 13.876V11.456L20.5707 1.16H24.1567V11.192H26.0927V13.876H24.1567V17H21.0767V13.876H13.3767ZM21.2747 4.46L16.7647 11.192H21.2747V4.46ZM28.8896 17.154C28.3322 17.154 27.8702 16.9853 27.5036 16.648C27.1516 16.296 26.9756 15.8633 26.9756 15.35C26.9756 14.8367 27.1516 14.4113 27.5036 14.074C27.8702 13.722 28.3322 13.546 28.8896 13.546C29.4322 13.546 29.8796 13.722 30.2316 14.074C30.5836 14.4113 30.7596 14.8367 30.7596 15.35C30.7596 15.8633 30.5836 16.296 30.2316 16.648C29.8796 16.9853 29.4322 17.154 28.8896 17.154Z" fill="#5B5B5B"></path></svg>