<svg xmlns="http://www.w3.org/2000/svg" width="31" height="18" viewBox="0 0 31 18" fill="none"><path d="M0.166 8.772C0.166 6.23467 0.620667 4.24733 1.53 2.81C2.454 1.37267 3.97933 0.653999 6.106 0.653999C8.23267 0.653999 9.75067 1.37267 10.66 2.81C11.584 4.24733 12.046 6.23467 12.046 8.772C12.046 11.324 11.584 13.326 10.66 14.778C9.75067 16.23 8.23267 16.956 6.106 16.956C3.97933 16.956 2.454 16.23 1.53 14.778C0.620667 13.326 0.166 11.324 0.166 8.772ZM9.01 8.772C9.01 7.68667 8.93667 6.77733 8.79 6.044C8.658 5.296 8.37933 4.68733 7.954 4.218C7.54333 3.74867 6.92733 3.514 6.106 3.514C5.28467 3.514 4.66133 3.74867 4.236 4.218C3.82533 4.68733 3.54667 5.296 3.4 6.044C3.268 6.77733 3.202 7.68667 3.202 8.772C3.202 9.88667 3.268 10.8253 3.4 11.588C3.532 12.336 3.81067 12.9447 4.236 13.414C4.66133 13.8687 5.28467 14.096 6.106 14.096C6.92733 14.096 7.55067 13.8687 7.976 13.414C8.40133 12.9447 8.68 12.336 8.812 11.588C8.944 10.8253 9.01 9.88667 9.01 8.772ZM24.2887 3.624H17.1607V7.386C17.4687 7.00467 17.9087 6.69667 18.4807 6.462C19.0527 6.21267 19.6613 6.088 20.3067 6.088C21.48 6.088 22.4407 6.34467 23.1887 6.858C23.9367 7.37133 24.4793 8.03133 24.8167 8.838C25.154 9.63 25.3227 10.4807 25.3227 11.39C25.3227 13.0767 24.8387 14.4333 23.8707 15.46C22.9173 16.4867 21.5533 17 19.7787 17C18.1067 17 16.772 16.582 15.7747 15.746C14.7773 14.91 14.2127 13.8173 14.0807 12.468H17.0727C17.2047 13.0547 17.498 13.524 17.9527 13.876C18.422 14.228 19.016 14.404 19.7347 14.404C20.6 14.404 21.2527 14.1327 21.6927 13.59C22.1327 13.0473 22.3527 12.3287 22.3527 11.434C22.3527 10.5247 22.1253 9.83533 21.6707 9.366C21.2307 8.882 20.578 8.64 19.7127 8.64C19.0967 8.64 18.5833 8.794 18.1727 9.102C17.762 9.41 17.4687 9.82067 17.2927 10.334H14.3447V0.918H24.2887V3.624ZM28.5029 17.154C27.9455 17.154 27.4835 16.9853 27.1169 16.648C26.7649 16.296 26.5889 15.8633 26.5889 15.35C26.5889 14.8367 26.7649 14.4113 27.1169 14.074C27.4835 13.722 27.9455 13.546 28.5029 13.546C29.0455 13.546 29.4929 13.722 29.8449 14.074C30.1969 14.4113 30.3729 14.8367 30.3729 15.35C30.3729 15.8633 30.1969 16.296 29.8449 16.648C29.4929 16.9853 29.0455 17.154 28.5029 17.154Z" fill="#5B5B5B"></path></svg>