<svg xmlns="http://www.w3.org/2000/svg" width="31" height="18" viewBox="0 0 31 18" fill="none"><path d="M0.166 8.772C0.166 6.23467 0.620667 4.24733 1.53 2.81C2.454 1.37267 3.97933 0.653999 6.106 0.653999C8.23267 0.653999 9.75067 1.37267 10.66 2.81C11.584 4.24733 12.046 6.23467 12.046 8.772C12.046 11.324 11.584 13.326 10.66 14.778C9.75067 16.23 8.23267 16.956 6.106 16.956C3.97933 16.956 2.454 16.23 1.53 14.778C0.620667 13.326 0.166 11.324 0.166 8.772ZM9.01 8.772C9.01 7.68667 8.93667 6.77733 8.79 6.044C8.658 5.296 8.37933 4.68733 7.954 4.218C7.54333 3.74867 6.92733 3.514 6.106 3.514C5.28467 3.514 4.66133 3.74867 4.236 4.218C3.82533 4.68733 3.54667 5.296 3.4 6.044C3.268 6.77733 3.202 7.68667 3.202 8.772C3.202 9.88667 3.268 10.8253 3.4 11.588C3.532 12.336 3.81067 12.9447 4.236 13.414C4.66133 13.8687 5.28467 14.096 6.106 14.096C6.92733 14.096 7.55067 13.8687 7.976 13.414C8.40133 12.9447 8.68 12.336 8.812 11.588C8.944 10.8253 9.01 9.88667 9.01 8.772ZM21.8247 4.966C21.678 4.35 21.4213 3.888 21.0547 3.58C20.7027 3.272 20.1893 3.118 19.5147 3.118C18.5027 3.118 17.7547 3.52867 17.2707 4.35C16.8013 5.15667 16.5593 6.47667 16.5447 8.31C16.8967 7.72333 17.41 7.26867 18.0847 6.946C18.7593 6.60867 19.4927 6.44 20.2847 6.44C21.238 6.44 22.0813 6.64533 22.8147 7.056C23.548 7.46667 24.12 8.068 24.5307 8.86C24.9413 9.63733 25.1467 10.576 25.1467 11.676C25.1467 12.7173 24.934 13.6487 24.5087 14.47C24.098 15.2767 23.4893 15.9073 22.6827 16.362C21.876 16.8167 20.9153 17.044 19.8007 17.044C18.2753 17.044 17.0727 16.7067 16.1927 16.032C15.3273 15.3573 14.7187 14.4187 14.3667 13.216C14.0293 11.9987 13.8607 10.5027 13.8607 8.728C13.8607 6.044 14.3227 4.02 15.2467 2.656C16.1707 1.27733 17.63 0.587999 19.6247 0.587999C21.1647 0.587999 22.36 1.006 23.2107 1.842C24.0613 2.678 24.5527 3.71933 24.6847 4.966H21.8247ZM19.5807 8.97C18.8033 8.97 18.1507 9.19733 17.6227 9.652C17.0947 10.1067 16.8307 10.7667 16.8307 11.632C16.8307 12.4973 17.0727 13.1793 17.5567 13.678C18.0553 14.1767 18.752 14.426 19.6467 14.426C20.4387 14.426 21.062 14.184 21.5167 13.7C21.986 13.216 22.2207 12.5633 22.2207 11.742C22.2207 10.8913 21.9933 10.2167 21.5387 9.718C21.0987 9.21933 20.446 8.97 19.5807 8.97ZM28.4169 17.154C27.8596 17.154 27.3976 16.9853 27.0309 16.648C26.6789 16.296 26.5029 15.8633 26.5029 15.35C26.5029 14.8367 26.6789 14.4113 27.0309 14.074C27.3976 13.722 27.8596 13.546 28.4169 13.546C28.9596 13.546 29.4069 13.722 29.7589 14.074C30.1109 14.4113 30.2869 14.8367 30.2869 15.35C30.2869 15.8633 30.1109 16.296 29.7589 16.648C29.4069 16.9853 28.9596 17.154 28.4169 17.154Z" fill="#5B5B5B"></path></svg>