<svg xmlns="http://www.w3.org/2000/svg" width="36" height="48" viewBox="0 0 36 48" fill="none"><path d="M24.876 45.1049L14.624 47.8519C13.8936 48.0475 13.136 47.6101 12.9402 46.8797C12.7446 46.1494 13.182 45.3917 13.9123 45.1961L24.1643 42.4491C24.8947 42.2534 25.6523 42.6907 25.848 43.4211C26.0439 44.1515 25.6063 44.9092 24.876 45.1049ZM20.1292 13.5994C20.0374 14.8491 19.3305 15.5535 18.2329 15.5357C17.1402 15.518 16.345 14.7691 16.3712 13.6287C16.3966 12.5191 17.0923 11.7903 18.2758 11.8032C19.4585 11.8159 20.0448 12.5148 20.1292 13.5994ZM33.2724 9.3875C29.194 2.65157 21.1163 -0.621195 13.6119 1.57135C7.04447 3.49024 2.76243 7.82658 1.20542 14.4956C-0.335704 21.0964 1.58254 26.7739 6.43733 31.5286C7.57588 32.6437 8.6227 33.9944 9.26454 35.4358C9.90802 36.8805 10.1143 37.3323 11.6817 36.953C13.8584 36.4262 16.006 35.7793 18.1824 35.2506C19.298 34.9796 19.722 34.3566 19.7146 33.2319C19.6847 28.6926 19.6947 24.1529 19.7113 19.6134C19.7149 18.5858 19.3919 17.7397 18.2864 17.7141C17.1672 17.6881 16.8246 18.5058 16.8339 19.5534C16.8598 22.4965 16.8418 25.4398 16.8415 28.383C16.8414 33.1177 16.8415 33.1177 12.1861 33.7979C10.4162 31.77 8.80462 29.9471 7.21878 28.1018C1.52716 21.4793 2.56799 11.6894 9.67158 6.61895C14.775 2.97603 20.2573 2.77332 25.7231 5.84915C30.7983 8.70529 33.5593 14.5895 32.8275 20.2817C32.3386 24.0842 30.5229 27.1195 27.8297 29.7288C26.2044 31.3036 24.7233 32.999 24.1902 35.2759C23.9408 36.3409 23.3437 36.8692 22.312 37.1235C22.5048 36.9443 11.1918 40.1141 11.1918 40.1141C10.4761 40.3058 10.0475 41.0483 10.2393 41.7639L10.2688 41.8746C10.4606 42.5902 11.203 43.0189 11.9187 42.8272C11.9187 42.8272 24.8992 39.3391 25.0694 39.2909C26.2715 38.959 26.9258 38.1033 26.9532 36.8818C26.9941 35.0583 27.7864 33.6391 29.0758 32.4275C29.766 31.7788 30.4532 31.1244 31.1028 30.4357C36.4643 24.7492 37.3491 16.1212 33.2724 9.3875Z" fill="black"></path></svg>