<svg xmlns="http://www.w3.org/2000/svg" width="44" height="58" viewBox="0 0 44 58" fill="none"><path d="M22.0371 41.5061V45.6842M22.0371 20.7809V24.6695M22.0371 55.8607C33.6821 55.8607 42 50.7311 42 39.3136C42 26.9033 37.0093 18.6298 27.0278 12.4246L30.9539 6.13677C31.1533 5.72421 31.2615 5.25342 31.2675 4.77213C31.2734 4.29083 31.1769 3.81613 30.9877 3.39615C30.7986 2.97616 30.5235 2.62582 30.1903 2.38064C29.8572 2.13545 29.4778 2.00414 29.0907 2H14.9836C14.5964 2.00414 14.2171 2.13545 13.8839 2.38064C13.5507 2.62582 13.2756 2.97616 13.0865 3.39615C12.8973 3.81613 12.8008 4.29083 12.8068 4.77213C12.8127 5.25342 12.9209 5.72421 13.1204 6.13677L17.0464 12.466C7.06494 18.7125 2.07422 26.9861 2.07422 39.3964C2.07422 50.7311 10.3921 55.8607 22.0371 55.8607Z" stroke="#7E7E7E" stroke-width="2.5" stroke-linecap="round" stroke-linejoin="round"></path><path d="M18.7122 39.6042C19.1182 40.2033 19.6292 40.6789 20.2059 40.9944C20.7826 41.3099 21.4098 41.457 22.0394 41.4244C23.0016 41.5059 23.9518 41.1204 24.6902 40.349C25.4285 39.5775 25.8976 38.4802 25.9987 37.2876C25.8976 36.0951 25.4285 34.9977 24.6902 34.2262C23.9518 33.4548 23.0016 33.0693 22.0394 33.1508C21.0772 33.2324 20.127 32.8469 19.3886 32.0754C18.6502 31.304 18.1812 30.2066 18.0801 29.0141C18.1731 27.8173 18.6398 26.7137 19.3801 25.9402C20.1205 25.1667 21.0752 24.7851 22.0394 24.8773C22.6579 24.8303 23.277 24.9543 23.8523 25.2404C24.4276 25.5265 24.9448 25.9676 25.3665 26.532" stroke="#7E7E7E" stroke-width="2.5" stroke-linecap="round" stroke-linejoin="round"></path></svg>