<svg xmlns="http://www.w3.org/2000/svg" width="46" height="43" viewBox="0 0 46 43" fill="none"><path d="M38.6488 34.6507H9.32902C8.92921 34.6507 8.52939 34.3841 8.26285 34.1176C7.99631 33.851 7.99631 33.3179 8.12958 32.9181L10.6617 26.5211L8.12958 2.66544H0V0H9.32902C9.99538 0 10.5285 0.533087 10.6617 1.19945L13.3272 26.5211C13.3272 26.7876 13.3272 26.9209 13.1939 27.1874L11.3281 31.9852H39.9815L38.6488 34.6507Z" fill="#7E7E7E"></path><path d="M12.2596 27.9868L11.7265 25.3213L42.6456 18.9243V7.996H10.6604V5.33057H43.9783C44.7779 5.33057 45.311 5.86365 45.311 6.66328V19.9905C45.311 20.6568 44.9112 21.1899 44.2449 21.3232L12.2596 27.9868ZM39.9802 42.6467C37.0482 42.6467 34.6493 40.2478 34.6493 37.3158C34.6493 34.3838 37.0482 31.9849 39.9802 31.9849C42.9121 31.9849 45.311 34.3838 45.311 37.3158C45.311 40.2478 42.9121 42.6467 39.9802 42.6467ZM39.9802 34.6504C38.5142 34.6504 37.3147 35.8498 37.3147 37.3158C37.3147 38.7818 38.5142 39.9812 39.9802 39.9812C41.4461 39.9812 42.6456 38.7818 42.6456 37.3158C42.6456 35.8498 41.4461 34.6504 39.9802 34.6504ZM7.99493 42.6467C5.06295 42.6467 2.66406 40.2478 2.66406 37.3158C2.66406 34.3838 5.06295 31.9849 7.99493 31.9849C10.9269 31.9849 13.3258 34.3838 13.3258 37.3158C13.3258 40.2478 10.9269 42.6467 7.99493 42.6467ZM7.99493 34.6504C6.52894 34.6504 5.3295 35.8498 5.3295 37.3158C5.3295 38.7818 6.52894 39.9812 7.99493 39.9812C9.46092 39.9812 10.6604 38.7818 10.6604 37.3158C10.6604 35.8498 9.46092 34.6504 7.99493 34.6504Z" fill="#7E7E7E"></path></svg>