<svg xmlns="http://www.w3.org/2000/svg" width="45" height="45" viewBox="0 0 45 45" fill="none"><path d="M22.402 32.073V35.2535M22.402 16.2965V19.2565M22.402 43C34.3031 43 42.804 39.0952 42.804 30.404C42.804 20.957 37.7035 14.659 27.5025 9.93548L31.5149 5.149C31.7187 4.83495 31.8293 4.47658 31.8354 4.11021C31.8414 3.74383 31.7428 3.38248 31.5495 3.06278C31.3562 2.74308 31.075 2.47639 30.7345 2.28975C30.394 2.10311 30.0063 2.00315 29.6107 2H15.1933C14.7976 2.00315 14.4099 2.10311 14.0694 2.28975C13.7289 2.47639 13.4478 2.74308 13.2545 3.06278C13.0612 3.38248 12.9625 3.74383 12.9686 4.11021C12.9747 4.47658 13.0853 4.83495 13.2891 5.149L17.3015 9.96697C7.1005 14.722 2 21.02 2 30.467C2 39.0952 10.5008 43 22.402 43Z" stroke="#7E7E7E" stroke-width="2.5" stroke-linecap="round" stroke-linejoin="round"></path><path d="M19.0054 30.6251C19.4203 31.0811 19.9425 31.4431 20.5319 31.6833C21.1214 31.9235 21.7624 32.0355 22.4058 32.0106C23.3892 32.0727 24.3602 31.7793 25.1149 31.192C25.8695 30.6047 26.3488 29.7694 26.4522 28.8616C26.3488 27.9538 25.8695 27.1185 25.1149 26.5312C24.3602 25.944 23.3892 25.6505 22.4058 25.7126C21.4224 25.7747 20.4513 25.4813 19.6967 24.894C18.9421 24.3067 18.4627 23.4714 18.3594 22.5636C18.4544 21.6526 18.9314 20.8125 19.688 20.2237C20.4446 19.6349 21.4204 19.3444 22.4058 19.4146C23.0378 19.3788 23.6706 19.4732 24.2586 19.691C24.8465 19.9088 25.3751 20.2446 25.8061 20.6742" stroke="#7E7E7E" stroke-width="2.5" stroke-linecap="round" stroke-linejoin="round"></path></svg>