<svg xmlns="http://www.w3.org/2000/svg" width="68" height="18" viewBox="0 0 68 18" fill="none"><path d="M7.23608 17.3683C6.81057 17.3683 6.39088 17.1831 6.10398 16.824L0.316944 9.58704C-0.105648 9.05735 -0.105648 8.30768 0.316944 7.77792L6.10398 0.540927C6.6017 -0.0784331 7.51374 -0.182623 8.13891 0.315091C8.76117 0.812805 8.86246 1.72783 8.36474 2.35002L3.30175 8.68418L8.3676 15.0183C8.86531 15.6435 8.76402 16.5556 8.14176 17.0533C7.87522 17.2617 7.55681 17.3688 7.2355 17.3688L7.23608 17.3683Z" fill="black"></path><path d="M66.5529 10.1296H2.8663C2.06714 10.1296 1.4187 9.48113 1.4187 8.68197C1.4187 7.88282 2.06714 7.23438 2.8663 7.23438H66.5529C67.3491 7.23438 68.0005 7.88282 68.0005 8.68197C68.0005 9.48113 67.352 10.1296 66.5529 10.1296Z" fill="black"></path></svg>