<svg xmlns="http://www.w3.org/2000/svg" width="56" height="51" viewBox="0 0 56 51" fill="none"><mask id="mask0_880_3924" style="mask-type:luminance" maskUnits="userSpaceOnUse" x="0" y="0" width="56" height="51"><path d="M0 0H56V50.582H0V0Z" fill="white"></path></mask><g mask="url(#mask0_880_3924)"><path d="M42.9962 20.0321C44.0993 19.3376 44.8881 18.2691 45.2275 16.9994C45.5858 15.67 45.4004 14.2778 44.7121 13.0836C43.323 10.6763 40.2777 9.81201 37.8421 11.0974L33.2066 3.06461C32.5938 2.00237 31.6007 1.24183 30.4128 0.921278C29.2217 0.600721 27.9803 0.764143 26.9181 1.37697C25.859 1.9898 25.0984 2.98604 24.7779 4.17713C24.539 5.0728 24.5705 5.9999 24.8659 6.85472C22.6628 12.4079 18.0053 18.0679 11.6822 22.8983C11.5848 22.8323 11.4748 22.782 11.3585 22.7506C11.0788 22.6751 10.7834 22.7128 10.532 22.8574L4.62052 26.2735C2.63118 27.4238 1.20753 29.2874 0.607273 31.5219C0.0101577 33.7563 0.315001 36.0819 1.46209 38.0744C3.05859 40.8432 5.9656 42.3925 8.95118 42.3925C10.4125 42.3925 11.8959 42.0185 13.2504 41.236L13.5898 41.0411L20.1109 49.561C20.5604 50.1487 21.1889 50.4944 21.9274 50.5636C22.0091 50.5699 22.094 50.573 22.1757 50.573C22.8168 50.573 23.4077 50.3436 23.8916 49.9036L25.6893 48.2725C26.6886 47.3643 26.8238 45.8684 26.0067 44.7935L19.8784 36.7325C27.1601 33.7186 34.3192 32.537 40.1772 33.3981C41.0634 34.4163 42.3425 34.9726 43.6499 34.9726C44.4293 34.9726 45.2212 34.7746 45.944 34.3566C48.1408 33.0869 48.8982 30.2648 47.6285 28.0649L42.9962 20.0321ZM42.8296 14.171C43.2256 14.8624 43.3325 15.6669 43.125 16.4368C42.9365 17.144 42.5059 17.7411 41.9057 18.1433L38.9295 12.983C40.3249 12.2979 42.0408 12.8039 42.8296 14.171ZM8.94803 40.2146C6.71356 40.2146 4.53881 39.055 3.34458 36.9839C2.48662 35.4974 2.26034 33.7595 2.70975 32.0844C3.15601 30.4125 4.22139 29.0203 5.7079 28.1592L10.6797 25.2867L17.1348 36.4779L12.163 39.3504C11.1479 39.9349 10.0417 40.2146 8.94803 40.2146ZM24.2279 46.6603L22.4303 48.2914C22.336 48.3762 22.248 48.4045 22.1223 48.3951C21.9934 48.3825 21.9149 48.3385 21.8363 48.238L15.488 39.9412L18.3353 38.2976L24.2782 46.1135C24.407 46.2832 24.385 46.5158 24.2279 46.6603ZM18.7124 34.8594L12.8701 24.7305C18.9544 20.1075 23.6025 14.7084 26.1732 9.29661L38.719 31.0442C32.7509 30.5665 25.7553 31.8959 18.7124 34.8594ZM44.8567 32.471C43.697 33.1404 42.2105 32.7412 41.5411 31.5816L27.1192 6.5813C26.4498 5.42164 26.8489 3.932 28.0054 3.2626C28.3763 3.04889 28.7911 2.9389 29.2091 2.9389C29.4228 2.9389 29.6365 2.96718 29.8471 3.02375C30.4788 3.19346 31.0005 3.59258 31.3242 4.15199L45.7461 29.1523C46.4155 30.3119 46.0163 31.8016 44.8567 32.471ZM46.0383 12.3168C45.7398 11.7951 45.9158 11.1288 46.4375 10.8303L50.8027 8.30665C51.3244 8.00495 51.9875 8.18409 52.2892 8.70578C52.5877 9.22432 52.4118 9.89058 51.8901 10.1923L47.5248 12.7127C47.352 12.8133 47.1666 12.8604 46.9811 12.8604C46.6072 12.8604 46.2395 12.6656 46.0383 12.3168ZM41.0068 5.30536L43.6656 0.695002C43.9641 0.176455 44.6304 -0.00267971 45.1489 0.299021C45.6706 0.597579 45.8498 1.26383 45.5481 1.78552L42.8893 6.39274C42.6882 6.74158 42.3236 6.93957 41.9465 6.93957C41.7611 6.93957 41.5757 6.89243 41.4028 6.79187C40.8843 6.49016 40.7051 5.82705 41.0068 5.30536ZM55.9944 19.0956C55.9944 19.6958 55.5073 20.183 54.9071 20.183H49.5896C48.9893 20.183 48.5022 19.6958 48.5022 19.0956C48.5022 18.4953 48.9893 18.0051 49.5896 18.0051H54.9071C55.5073 18.0051 55.9944 18.4953 55.9944 19.0956Z" fill="#969696"></path></g></svg>