<svg xmlns="http://www.w3.org/2000/svg" width="63" height="50" viewBox="0 0 63 50" fill="none"><path fill-rule="evenodd" clip-rule="evenodd" d="M36.7662 38.2409H25.6242C25.3305 38.2409 25.0665 38.0664 24.9518 37.7979L18.5282 22.8555C18.4226 22.6099 18.4594 22.3299 18.6246 22.1188L30.618 6.8344C30.8957 6.48098 31.4924 6.48098 31.7724 6.8344L43.7635 22.1188C43.9288 22.3299 43.9655 22.6099 43.8599 22.8555L37.4386 37.7979C37.3239 38.0664 37.06 38.2409 36.7662 38.2409ZM26.1062 36.7836H36.2843L42.3475 22.6765L31.1964 8.46612L20.0429 22.6765L26.1062 36.7836Z" fill="#969696"></path><path fill-rule="evenodd" clip-rule="evenodd" d="M36.7647 41.7541H25.6227C25.2188 41.7541 24.8906 41.4282 24.8906 41.0266V37.513C24.8906 37.1091 25.2188 36.7832 25.6227 36.7832H36.7647C37.1686 36.7832 37.4968 37.1114 37.4968 37.513V41.0266C37.4968 41.4282 37.1686 41.7541 36.7647 41.7541ZM26.3525 40.2968H36.0326V38.2405H26.3525V40.2968Z" fill="#969696"></path><mask id="mask0_880_3897" style="mask-type:luminance" maskUnits="userSpaceOnUse" x="23" y="39" width="17" height="11"><path d="M23.3125 39.9668H39.1752V49.2476H23.3125V39.9668Z" fill="white"></path></mask><g mask="url(#mask0_880_3897)"><path fill-rule="evenodd" clip-rule="evenodd" d="M37.2378 49.2495H25.148C24.2461 49.2495 23.5117 48.5174 23.5117 47.6178V41.0244C23.5117 40.6228 23.8376 40.2969 24.2415 40.2969H38.1466C38.5506 40.2969 38.8764 40.6251 38.8764 41.0244V47.6178C38.8764 48.5174 38.1421 49.2495 37.2378 49.2495ZM24.9736 41.7542V47.6178C24.9736 47.7142 25.0539 47.7922 25.148 47.7922H37.2378C37.3342 47.7922 37.4123 47.7142 37.4123 47.6178V41.7542H24.9736Z" fill="#969696"></path></g><path fill-rule="evenodd" clip-rule="evenodd" d="M31.1946 38.2411C30.7907 38.2411 30.4648 37.9153 30.4648 37.5136V25.5454C30.4648 24.5885 31.9267 24.5885 31.9267 25.5454V37.5113C31.9267 37.9153 31.5986 38.2411 31.1946 38.2411ZM31.1946 19.9779C30.7907 19.9779 30.4648 19.652 30.4648 19.2504V7.2822C30.4648 6.3252 31.9267 6.3252 31.9267 7.2822V19.2504C31.9267 19.652 31.5986 19.9779 31.1946 19.9779Z" fill="#969696"></path><path fill-rule="evenodd" clip-rule="evenodd" d="M31.1943 26.2752C29.0463 26.2752 27.2998 24.5356 27.2998 22.399C27.2998 20.2601 29.0463 18.5205 31.1943 18.5205C33.3424 18.5205 35.0912 20.2601 35.0912 22.399C35.0912 24.5356 33.3424 26.2752 31.1943 26.2752ZM31.1943 19.9778C27.9929 19.9778 27.9952 24.8202 31.1943 24.8202C34.3958 24.8202 34.3958 19.9778 31.1943 19.9778Z" fill="#969696"></path><path fill-rule="evenodd" clip-rule="evenodd" d="M38.1467 45.5022H31.9136C30.952 45.5022 30.952 44.0449 31.9136 44.0449H38.1467C39.1105 44.0449 39.1105 45.5022 38.1467 45.5022Z" fill="#969696"></path><path fill-rule="evenodd" clip-rule="evenodd" d="M4.02909 29.4447C3.60223 29.4447 3.26487 29.0798 3.29929 28.6575C4.35497 15.5212 14.6662 4.82901 27.814 3.23631C28.7687 3.11927 28.9477 4.56509 27.9907 4.68213C15.5291 6.19221 5.75949 16.3244 4.75659 28.7746C4.72676 29.1555 4.40776 29.4447 4.02909 29.4447ZM58.3598 29.4447C57.9835 29.4447 57.6622 29.1555 57.6323 28.7746C56.6294 16.3244 46.8598 6.19221 34.3982 4.67984C33.4412 4.56509 33.6248 3.11927 34.5749 3.23402C47.725 4.82901 58.034 15.5212 59.0896 28.6575C59.1241 29.0798 58.7867 29.4447 58.3598 29.4447Z" fill="#969696"></path><mask id="mask1_880_3897" style="mask-type:luminance" maskUnits="userSpaceOnUse" x="0" y="27" width="9" height="10"><path d="M0 27.6289H8.62444V36.4415H0V27.6289Z" fill="white"></path></mask><g mask="url(#mask1_880_3897)"><path fill-rule="evenodd" clip-rule="evenodd" d="M6.02552 35.999H2.0346C0.914661 35.999 0.00585938 35.0925 0.00585938 33.9794V30.0069C0.00585938 28.8938 0.914661 27.9873 2.0346 27.9873H6.02552C7.14546 27.9873 8.05426 28.8938 8.05426 30.0069V33.9794C8.05426 35.0925 7.14546 35.999 6.02552 35.999ZM2.0346 29.4446C1.72249 29.4446 1.46775 29.697 1.46775 30.0069V33.9794C1.46775 34.2893 1.72249 34.5417 2.0346 34.5417H6.02552C6.33764 34.5417 6.59238 34.2893 6.59238 33.9794V30.0069C6.59238 29.697 6.33764 29.4446 6.02552 29.4446H2.0346Z" fill="#969696"></path></g><mask id="mask2_880_3897" style="mask-type:luminance" maskUnits="userSpaceOnUse" x="53" y="27" width="10" height="10"><path d="M53.8633 27.6289H62.4395V36.4415H53.8633V27.6289Z" fill="white"></path></mask><g mask="url(#mask2_880_3897)"><path fill-rule="evenodd" clip-rule="evenodd" d="M60.4035 35.999H56.4125C55.2949 35.999 54.3838 35.0925 54.3838 33.9794V30.0069C54.3838 28.8938 55.2949 27.9873 56.4125 27.9873H60.4035C61.5234 27.9873 62.4322 28.8938 62.4322 30.0069V33.9794C62.4322 35.0925 61.5234 35.999 60.4035 35.999ZM56.4125 29.4446C56.1004 29.4446 55.848 29.697 55.848 30.0069V33.9794C55.848 34.2893 56.1004 34.5417 56.4125 34.5417H60.4035C60.7156 34.5417 60.968 34.2893 60.968 33.9794V30.0069C60.968 29.697 60.7156 29.4446 60.4035 29.4446H56.4125Z" fill="#969696"></path></g><mask id="mask3_880_3897" style="mask-type:luminance" maskUnits="userSpaceOnUse" x="26" y="0" width="10" height="9"><path d="M26.8359 0H35.6486V8.24118H26.8359V0Z" fill="white"></path></mask><g mask="url(#mask3_880_3897)"><path fill-rule="evenodd" clip-rule="evenodd" d="M33.1915 8.01169H29.2006C28.0807 8.01169 27.1719 7.10518 27.1719 5.99213V2.01956C27.1719 0.906507 28.0807 0 29.2006 0H33.1915C34.3092 0 35.2203 0.906507 35.2203 2.01956V5.99213C35.2203 7.10518 34.3092 8.01169 33.1915 8.01169ZM29.2006 1.4573C28.8885 1.4573 28.6338 1.70974 28.6338 2.01956V5.99213C28.6338 6.30195 28.8885 6.55439 29.2006 6.55439H33.1915C33.5037 6.55439 33.7561 6.30195 33.7561 5.99213V2.01956C33.7561 1.70974 33.5014 1.4573 33.1915 1.4573H29.2006Z" fill="#969696"></path></g></svg>