<svg xmlns="http://www.w3.org/2000/svg" width="33" height="54" viewBox="0 0 33 54" fill="none"><mask id="mask0_880_3930" style="mask-type:luminance" maskUnits="userSpaceOnUse" x="0" y="0" width="33" height="54"><path d="M0 0H32.2651V53.776H0V0Z" fill="white"></path></mask><g mask="url(#mask0_880_3930)"><path d="M1.79364 4.4832C1.79364 2.99828 2.99791 1.79402 4.48283 1.79402H8.9631V2.68956C8.9631 4.17448 10.1674 5.37875 11.6523 5.37875H20.6128C22.0978 5.37875 23.302 4.17448 23.302 2.68956V1.79402H27.7848C29.2672 1.79402 30.4715 2.99828 30.4715 4.4832V49.2936C30.4715 50.7785 29.2672 51.9828 27.7848 51.9828H4.48283C2.99791 51.9828 1.79364 50.7785 1.79364 49.2936V4.4832ZM10.7542 1.79402H21.5109V2.68956C21.5109 3.18454 21.1078 3.58766 20.6128 3.58766H11.6523C11.1573 3.58766 10.7542 3.18454 10.7542 2.68956V1.79402ZM4.48283 53.7739H27.7848C30.2546 53.7739 32.2651 51.7634 32.2651 49.2936V4.4832C32.2651 2.01089 30.2546 0.00292969 27.7848 0.00292969H4.48283C2.01051 0.00292969 0 2.01089 0 4.4832V49.2936C0 51.7634 2.01051 53.7739 4.48283 53.7739Z" fill="#969696"></path></g><path d="M22.4063 48.3975H9.85844C9.36601 48.3975 8.96289 48.798 8.96289 49.293C8.96289 49.7854 9.36601 50.1885 9.85844 50.1885H22.4063C22.8987 50.1885 23.3018 49.7854 23.3018 49.293C23.3018 48.798 22.8987 48.3975 22.4063 48.3975Z" fill="#969696"></path><path d="M10.195 19.5204C10.3583 19.6556 10.5598 19.7168 10.7537 19.7168C11.0165 19.7168 11.2768 19.602 11.4554 19.3826C11.7641 18.9973 11.7003 18.4284 11.3151 18.1222L7.70992 15.2365L11.3151 12.3509C11.7003 12.0447 11.7641 11.4758 11.4554 11.0905C11.1441 10.7078 10.5828 10.644 10.195 10.9527L5.71472 14.5375C5.5004 14.7084 5.37793 14.9635 5.37793 15.2365C5.37793 15.5095 5.5004 15.7647 5.71472 15.9356L10.195 19.5204Z" fill="#969696"></path><path d="M20.8098 19.3826C20.9884 19.602 21.2487 19.7168 21.5115 19.7168C21.7079 19.7168 21.907 19.6556 22.0702 19.5204L26.5531 15.9356C26.7648 15.7647 26.8873 15.5095 26.8873 15.2365C26.8873 14.9635 26.7648 14.7084 26.5531 14.5375L22.0702 10.9527C21.685 10.644 21.1211 10.7078 20.8098 11.0905C20.5037 11.4758 20.5649 12.0447 20.9502 12.3509L24.5579 15.2365L20.9502 18.1222C20.5649 18.4284 20.5037 18.9973 20.8098 19.3826Z" fill="#969696"></path><path d="M15.0606 20.597C15.1219 20.6072 15.178 20.6149 15.2367 20.6149C15.6551 20.6149 16.0302 20.3189 16.1144 19.8928L17.908 10.9297C18.005 10.4475 17.6911 9.97548 17.2038 9.87597C16.7216 9.77902 16.247 10.0928 16.1501 10.5802L14.3564 19.5433C14.2595 20.0255 14.5733 20.4975 15.0606 20.597Z" fill="#969696"></path><path d="M5.37797 26.8868H6.27351C6.76848 26.8868 7.16906 26.4862 7.16906 25.9912C7.16906 25.4988 6.76848 25.0957 6.27351 25.0957H5.37797C4.88299 25.0957 4.48242 25.4988 4.48242 25.9912C4.48242 26.4862 4.88299 26.8868 5.37797 26.8868Z" fill="#969696"></path><path d="M8.96289 25.9912C8.96289 26.4862 9.36601 26.8868 9.85844 26.8868H26.8865C27.3815 26.8868 27.7846 26.4862 27.7846 25.9912C27.7846 25.4988 27.3815 25.0957 26.8865 25.0957H9.85844C9.36601 25.0957 8.96289 25.4988 8.96289 25.9912Z" fill="#969696"></path><path d="M5.37797 37.6407H6.27351C6.76848 37.6407 7.16906 37.2401 7.16906 36.7452C7.16906 36.2527 6.76848 35.8496 6.27351 35.8496H5.37797C4.88299 35.8496 4.48242 36.2527 4.48242 36.7452C4.48242 37.2401 4.88299 37.6407 5.37797 37.6407Z" fill="#969696"></path><path d="M26.8865 35.8496H9.85844C9.36601 35.8496 8.96289 36.2527 8.96289 36.7452C8.96289 37.2401 9.36601 37.6407 9.85844 37.6407H26.8865C27.3815 37.6407 27.7846 37.2401 27.7846 36.7452C27.7846 36.2527 27.3815 35.8496 26.8865 35.8496Z" fill="#969696"></path><path d="M7.16898 30.4718H8.06708C8.5595 30.4718 8.96262 30.0712 8.96262 29.5762C8.96262 29.0838 8.5595 28.6807 8.06708 28.6807H7.16898C6.67656 28.6807 6.27344 29.0838 6.27344 29.5762C6.27344 30.0712 6.67656 30.4718 7.16898 30.4718Z" fill="#969696"></path><path d="M26.8863 28.6807H19.7168C19.2244 28.6807 18.8213 29.0838 18.8213 29.5762C18.8213 30.0712 19.2244 30.4718 19.7168 30.4718H26.8863C27.3813 30.4718 27.7844 30.0712 27.7844 29.5762C27.7844 29.0838 27.3813 28.6807 26.8863 28.6807Z" fill="#969696"></path><path d="M11.652 30.4718H16.1323C16.6273 30.4718 17.0278 30.0712 17.0278 29.5762C17.0278 29.0838 16.6273 28.6807 16.1323 28.6807H11.652C11.157 28.6807 10.7539 29.0838 10.7539 29.5762C10.7539 30.0712 11.157 30.4718 11.652 30.4718Z" fill="#969696"></path><path d="M7.16898 34.0557H8.06708C8.5595 34.0557 8.96262 33.6552 8.96262 33.1602C8.96262 32.6678 8.5595 32.2646 8.06708 32.2646H7.16898C6.67656 32.2646 6.27344 32.6678 6.27344 33.1602C6.27344 33.6552 6.67656 34.0557 7.16898 34.0557Z" fill="#969696"></path><path d="M26.8863 32.2646H19.7168C19.2244 32.2646 18.8213 32.6678 18.8213 33.1602C18.8213 33.6552 19.2244 34.0557 19.7168 34.0557H26.8863C27.3813 34.0557 27.7844 33.6552 27.7844 33.1602C27.7844 32.6678 27.3813 32.2646 26.8863 32.2646Z" fill="#969696"></path><path d="M11.652 34.0557H16.1323C16.6273 34.0557 17.0278 33.6552 17.0278 33.1602C17.0278 32.6678 16.6273 32.2646 16.1323 32.2646H11.652C11.157 32.2646 10.7539 32.6678 10.7539 33.1602C10.7539 33.6552 11.157 34.0557 11.652 34.0557Z" fill="#969696"></path><path d="M6.27344 40.3301C6.27344 40.8251 6.67656 41.2257 7.16898 41.2257H8.06708C8.5595 41.2257 8.96262 40.8251 8.96262 40.3301C8.96262 39.8377 8.5595 39.4346 8.06708 39.4346H7.16898C6.67656 39.4346 6.27344 39.8377 6.27344 40.3301Z" fill="#969696"></path><path d="M26.8863 39.4346H19.7168C19.2244 39.4346 18.8213 39.8377 18.8213 40.3301C18.8213 40.8251 19.2244 41.2257 19.7168 41.2257H26.8863C27.3813 41.2257 27.7844 40.8251 27.7844 40.3301C27.7844 39.8377 27.3813 39.4346 26.8863 39.4346Z" fill="#969696"></path><path d="M11.652 41.2257H16.1323C16.6273 41.2257 17.0278 40.8251 17.0278 40.3301C17.0278 39.8377 16.6273 39.4346 16.1323 39.4346H11.652C11.157 39.4346 10.7539 39.8377 10.7539 40.3301C10.7539 40.8251 11.157 41.2257 11.652 41.2257Z" fill="#969696"></path><path d="M8.06708 43.0195H7.16898C6.67656 43.0195 6.27344 43.4227 6.27344 43.9151C6.27344 44.41 6.67656 44.8132 7.16898 44.8132H8.06708C8.5595 44.8132 8.96262 44.41 8.96262 43.9151C8.96262 43.4227 8.5595 43.0195 8.06708 43.0195Z" fill="#969696"></path><path d="M26.8863 43.0195H19.7168C19.2244 43.0195 18.8213 43.4227 18.8213 43.9151C18.8213 44.41 19.2244 44.8132 19.7168 44.8132H26.8863C27.3813 44.8132 27.7844 44.41 27.7844 43.9151C27.7844 43.4227 27.3813 43.0195 26.8863 43.0195Z" fill="#969696"></path><path d="M11.652 44.8132H16.1323C16.6273 44.8132 17.0278 44.41 17.0278 43.9151C17.0278 43.4227 16.6273 43.0195 16.1323 43.0195H11.652C11.157 43.0195 10.7539 43.4227 10.7539 43.9151C10.7539 44.41 11.157 44.8132 11.652 44.8132Z" fill="#969696"></path></svg>