<svg xmlns="http://www.w3.org/2000/svg" width="37" height="43" viewBox="0 0 37 43" fill="none"><path d="M0.488279 0C0.16304 1.39542 -0.000804065 2.82394 2.96677e-06 4.25716C2.96677e-06 11.5102 4.14202 17.8008 10.1741 20.8673C9.3657 19.8904 8.65744 18.7705 8.04795 17.5439C4.15297 14.4437 1.65637 9.64751 1.65637 4.25716C1.65637 2.78619 1.84367 1.3601 2.19315 0H0.488279ZM6.62224 0C6.14897 1.33114 5.89061 2.76426 5.89061 4.25716C5.89061 8.99953 8.4926 13.1403 12.3363 15.3144C11.7598 14.3679 11.3082 13.3151 10.9536 12.2458C8.85413 10.2407 7.54697 7.40547 7.54697 4.25716C7.54697 2.74695 7.84841 1.30911 8.3931 0H6.62224ZM13.2901 0C12.3476 1.16299 11.7812 2.64553 11.7812 4.25716C11.7812 6.71353 13.0968 8.86997 15.0553 10.0525C14.705 9.1748 14.4497 8.16303 14.2884 7.08981C13.7509 6.28117 13.4376 5.30752 13.4376 4.25716C13.4376 3.2068 13.7508 2.23325 14.2884 1.42442C14.36 0.945476 14.4537 0.470151 14.5694 0H13.2901ZM22.4307 0C22.5463 0.470183 22.6401 0.945539 22.7116 1.42451C23.2491 2.23315 23.5624 3.2068 23.5624 4.25716C23.5624 5.30752 23.2492 6.28108 22.7116 7.0899C22.5504 8.16303 22.295 9.1748 21.9447 10.0525C23.9033 8.86997 25.2188 6.71353 25.2188 4.25716C25.2188 2.64553 24.6525 1.16299 23.7099 0H22.4306H22.4307ZM28.6069 0C29.1516 1.30911 29.453 2.74695 29.453 4.25716C29.453 7.40547 28.1459 10.2407 26.0464 12.2458C25.6919 13.3151 25.2401 14.3679 24.6637 15.3144C28.5074 13.1404 31.1094 8.99953 31.1094 4.25716C31.1094 2.76426 30.851 1.33114 30.3777 0H28.6069ZM34.8068 0C35.1639 1.39054 35.3443 2.821 35.3437 4.25716C35.3437 9.64751 32.8471 14.4437 28.9521 17.5439C28.3427 18.7705 27.6344 19.8904 26.826 20.8673C32.858 17.8008 37 11.5102 37 4.25716C37 2.79267 36.8309 1.36741 36.5117 0H34.8069H34.8068ZM18.5 2.12849C17.321 2.12849 16.3829 3.07169 16.3829 4.25716C16.3829 5.44264 17.321 6.38583 18.5 6.38583C19.679 6.38583 20.6171 5.44264 20.6171 4.25716C20.6171 3.07169 19.679 2.12849 18.5 2.12849ZM16.627 7.54568L5.92706 42.5102L7.51053 42.9999L8.72086 39.0446L18.5 36.7758L28.2791 39.0447L29.4895 43L31.0729 42.5103L20.373 7.54568C19.8889 7.82696 19.3482 7.99545 18.7907 8.03874L23.3609 22.9734L18.5 24.6025L13.6391 22.9734L18.2093 8.03884C17.6518 7.99552 17.1111 7.82699 16.627 7.54568ZM13.1518 24.5657L15.8808 25.4805L12.5279 26.6043L13.1518 24.5657ZM23.8482 24.5657L24.4721 26.6043L21.1192 25.4805L23.8482 24.5657ZM18.5 26.3583L23.3461 27.9824L18.5 29.7542L13.6541 27.9823L18.5 26.3583ZM11.7742 29.0675L16.0762 30.6405L10.6902 32.6098L11.7742 29.0675ZM25.2258 29.0675L26.3098 32.6097L20.9236 30.6404L25.2258 29.0675ZM18.5 31.5264L24.4232 33.6921L18.5 35.0666L12.5767 33.6921L18.5 31.5264ZM10.0175 34.8075L14.8169 35.9211L9.28387 37.205L10.0175 34.8075ZM26.9823 34.8075L27.7161 37.2048L22.1833 35.9212L26.9823 34.8075Z" fill="#7E7E7E"></path></svg>