<svg xmlns="http://www.w3.org/2000/svg" width="56" height="38" viewBox="0 0 56 38" fill="none"><path d="M0.93165 6.31721V6.31605C0.93165 5.63502 1.1543 5.08801 1.59581 4.64098C2.03695 4.19433 2.57293 3.97235 3.23747 3.97394H3.23867H11.6597C12.3269 3.97394 12.8642 4.19711 13.3054 4.64382C13.7468 5.09079 13.9683 5.63648 13.9667 6.31488V6.31605C13.9667 6.99707 13.7441 7.54408 13.3026 7.99112C12.8614 8.43776 12.3255 8.65974 11.6609 8.65815H11.6597H3.23867C2.5715 8.65815 2.0342 8.43498 1.59301 7.98827C1.15155 7.5413 0.930069 6.99561 0.93165 6.31721ZM0.93165 20.5277V20.5266C0.93165 19.8455 1.1543 19.2985 1.59581 18.8515C2.03695 18.4049 2.57293 18.1829 3.23747 18.1845H3.23867H11.6597C12.3269 18.1845 12.8642 18.4076 13.3054 18.8543C13.7468 19.3013 13.9683 19.847 13.9667 20.5254V20.5266C13.9667 21.2076 13.7441 21.7546 13.3026 22.2016C12.8614 22.6483 12.3255 22.8703 11.6609 22.8687H11.6597H3.23867C2.5715 22.8687 2.0342 22.6455 1.59301 22.1988C1.15155 21.7518 0.930069 21.2061 0.93165 20.5277ZM42.1909 26.2857L41.8908 25.9819L41.5437 26.2308C40.4659 27.0038 39.287 27.5839 38.0048 27.9718C36.7163 28.3615 35.4207 28.5547 34.1166 28.5529H34.1159C30.367 28.5529 27.1846 27.2208 24.5404 24.5435C21.896 21.8661 20.579 18.6419 20.5808 14.8426V14.8424C20.5808 11.041 21.8988 7.81581 24.5432 5.13835C27.1874 2.46111 30.3688 1.13001 34.1156 1.13184H34.1159C37.8647 1.13184 41.0471 2.46394 43.6913 5.14119C46.3357 7.81864 47.6527 11.0428 47.6509 14.8421V14.8424C47.6509 16.1669 47.4589 17.4816 47.0735 18.7878C46.6899 20.0879 46.1172 21.2817 45.3552 22.3717L45.1165 22.7131L45.4092 23.0095L54.2513 31.9621C54.6639 32.3799 54.879 32.9122 54.879 33.6003C54.879 34.2883 54.6639 34.8206 54.2513 35.2384C53.8392 35.6556 53.3165 35.8713 52.6422 35.8713C51.9678 35.8713 51.4451 35.6556 51.033 35.2384L42.1909 26.2857ZM0.93165 34.7383V34.7371C0.93165 34.0561 1.1543 33.5091 1.59581 33.062C2.03695 32.6154 2.57293 32.3934 3.23747 32.395H3.23867H25.6948C26.362 32.395 26.8993 32.6182 27.3405 33.0649C27.7819 33.5118 28.0034 34.0575 28.0018 34.7359V34.7371C28.0018 35.4181 27.7792 35.9651 27.3377 36.4122C26.8965 36.8588 26.3605 37.0808 25.696 37.0792H25.6948H3.23867C2.5715 37.0792 2.0342 36.856 1.59301 36.4093C1.15155 35.9623 0.930069 35.4167 0.93165 34.7383ZM34.1159 23.8687C36.5881 23.8687 38.7047 22.9866 40.4365 21.2332C42.168 19.48 43.0369 17.3399 43.0369 14.8424C43.0369 12.3448 42.168 10.2047 40.4365 8.45154C38.7047 6.69812 36.5881 5.81605 34.1159 5.81605C31.6436 5.81605 29.527 6.69811 27.7952 8.45154C26.0637 10.2047 25.1948 12.3448 25.1948 14.8424C25.1948 17.3399 26.0637 19.48 27.7952 21.2332C29.527 22.9866 31.6436 23.8687 34.1159 23.8687Z" fill="black" stroke="white"></path></svg>