<svg xmlns="http://www.w3.org/2000/svg" width="35" height="28" viewBox="0 0 35 28" fill="none"><path d="M25.2778 9.72222C25.2778 4.35069 19.6207 0 12.6389 0C5.65712 0 0 4.35069 0 9.72222C0 11.8064 0.856771 13.7266 2.30903 15.3125C1.49479 17.1476 0.15191 18.6059 0.133681 18.6241C0 18.7639 -0.0364583 18.9705 0.0425347 19.1528C0.121528 19.3351 0.291667 19.4444 0.486111 19.4444C2.71007 19.4444 4.55121 18.697 5.87587 17.9253C7.83246 18.8793 10.1476 19.4444 12.6389 19.4444C19.6207 19.4444 25.2778 15.0937 25.2778 9.72222ZM32.691 23.0903C34.1432 21.5104 35 19.5842 35 17.5C35 13.4349 31.7491 9.95312 27.1432 8.50087C27.1979 8.90191 27.2222 9.30903 27.2222 9.72222C27.2222 16.1571 20.678 21.3889 12.6389 21.3889C11.9826 21.3889 11.3446 21.3403 10.7127 21.2734C12.6267 24.7674 17.1233 27.2222 22.3611 27.2222C24.8524 27.2222 27.1675 26.6632 29.1241 25.7031C30.4488 26.4748 32.2899 27.2222 34.5139 27.2222C34.7083 27.2222 34.8845 27.1068 34.9575 26.9306C35.0365 26.7543 35 26.5477 34.8663 26.4019C34.8481 26.3837 33.5052 24.9314 32.691 23.0903Z" fill="#2A5BCC"></path></svg>