<svg xmlns="http://www.w3.org/2000/svg" width="50" height="40" viewBox="0 0 50 40" fill="none"><path d="M16.6634 28.5714C17.4003 28.5714 18.107 28.2704 18.628 27.7346C19.1491 27.1988 19.4418 26.472 19.4418 25.7143C19.4418 24.9565 19.1491 24.2298 18.628 23.694C18.107 23.1582 17.4003 22.8571 16.6634 22.8571C15.9265 22.8571 15.2199 23.1582 14.6988 23.694C14.1778 24.2298 13.885 24.9565 13.885 25.7143C13.885 26.472 14.1778 27.1988 14.6988 27.7346C15.2199 28.2704 15.9265 28.5714 16.6634 28.5714ZM27.7769 25.7143C27.7769 26.472 27.4842 27.1988 26.9631 27.7346C26.4421 28.2704 25.7354 28.5714 24.9985 28.5714C24.2617 28.5714 23.555 28.2704 23.0339 27.7346C22.5129 27.1988 22.2202 26.472 22.2202 25.7143C22.2202 24.9565 22.5129 24.2298 23.0339 23.694C23.555 23.1582 24.2617 22.8571 24.9985 22.8571C25.7354 22.8571 26.4421 23.1582 26.9631 23.694C27.4842 24.2298 27.7769 24.9565 27.7769 25.7143ZM33.3336 28.5714C34.0705 28.5714 34.7772 28.2704 35.2982 27.7346C35.8193 27.1988 36.112 26.472 36.112 25.7143C36.112 24.9565 35.8193 24.2298 35.2982 23.694C34.7772 23.1582 34.0705 22.8571 33.3336 22.8571C32.5968 22.8571 31.8901 23.1582 31.369 23.694C30.848 24.2298 30.5553 24.9565 30.5553 25.7143C30.5553 26.472 30.848 27.1988 31.369 27.7346C31.8901 28.2704 32.5968 28.5714 33.3336 28.5714ZM8.3283 0.837143C8.84923 0.301287 9.5558 0.000161821 10.2926 0H39.7044C40.4412 0.000161821 41.1478 0.301287 41.6687 0.837143L49.0092 8.38286C51.1263 10.5629 49.626 14.2857 46.6309 14.2857H44.4471V34.2857C44.4471 35.8012 43.8617 37.2547 42.8196 38.3263C41.7775 39.398 40.3641 40 38.8904 40H11.1067C9.63294 40 8.21956 39.398 7.17747 38.3263C6.13538 37.2547 5.54994 35.8012 5.54994 34.2857V14.2857H3.36614C0.371055 14.2857 -1.12649 10.5629 0.99341 8.38286L8.3283 0.837143ZM41.6687 34.2857V14.2857H8.3283V34.2857C8.3283 35.0435 8.62103 35.7702 9.14207 36.306C9.66312 36.8418 10.3698 37.1429 11.1067 37.1429H38.8904C39.6272 37.1429 40.3339 36.8418 40.855 36.306C41.376 35.7702 41.6687 35.0435 41.6687 34.2857ZM46.6309 11.4286C46.7461 11.4286 46.8588 11.3935 46.9547 11.3277C47.0505 11.262 47.1253 11.1685 47.1696 11.0591C47.2139 10.9497 47.2257 10.8293 47.2035 10.713C47.1813 10.5967 47.1261 10.4898 47.0449 10.4057L39.7044 2.85714H10.2926L2.95494 10.4057C2.87389 10.4896 2.81876 10.5963 2.79647 10.7123C2.77418 10.8283 2.78573 10.9485 2.82966 11.0578C2.8736 11.1671 2.94796 11.2606 3.04341 11.3266C3.13886 11.3925 3.25114 11.428 3.36614 11.4286H46.6309Z" fill="white"></path></svg>