<svg xmlns="http://www.w3.org/2000/svg" width="46" height="47" viewBox="0 0 46 47" fill="none"><path d="M39.4104 20.1666C45.273 14.2224 45.528 7.09923 45.3656 4.30638C45.3167 3.50507 44.9763 2.74934 44.4088 2.18167C43.841 1.61385 43.0852 1.27345 42.2838 1.22469C39.4688 1.05687 32.2809 1.31585 26.3174 7.27809L25.233 8.36266L25.1305 8.46519H24.9855H11.7244H11.7224C11.2893 8.46274 10.86 8.54646 10.4595 8.71147C10.0591 8.87648 9.69539 9.11949 9.38967 9.42636L9.38929 9.42674L1.5913 17.2305L1.59076 17.231C1.15734 17.6629 0.853003 18.2071 0.711976 18.8025C0.570949 19.398 0.598834 20.0209 0.792494 20.6014C0.986153 21.1818 1.3379 21.6966 1.80816 22.088C2.27842 22.4794 2.84854 22.7318 3.45437 22.8168L12.2002 24.0378L12.3164 24.054L12.3993 24.137L22.4503 34.1895L22.5332 34.2725L22.5494 34.3887L23.7702 43.1404L39.4104 20.1666ZM39.4104 20.1666H39.4089L39.3064 20.2692L38.2219 21.3538L38.1194 21.4563V21.6013L38.1194 34.8645L38.1195 34.8665C38.1219 35.2997 38.0382 35.729 37.8732 36.1296C37.7082 36.5301 37.4652 36.8939 37.1584 37.1996L37.158 37.2L29.3555 44.9992L29.3545 45.0002C29.0506 45.3063 28.6891 45.5492 28.2908 45.7149C27.8926 45.8806 27.4655 45.9658 27.0341 45.9655H27.034C26.6775 45.9654 26.3234 45.9077 25.9853 45.7948L25.9844 45.7945C25.4045 45.6026 24.8899 45.2525 24.4986 44.7834C24.1074 44.3145 23.8551 43.7454 23.7703 43.1406L39.4104 20.1666ZM17.9143 34.6536C18.1106 34.9863 18.168 35.3828 18.0746 35.7573L18.0712 35.7568C18.0354 35.8991 17.481 37.9969 15.4514 40.0558C13.4312 42.1052 9.92015 44.1464 3.91274 44.1464C3.52321 44.1464 3.14963 43.9917 2.87418 43.7162C2.59872 43.4407 2.44396 43.067 2.44396 42.6774C2.44396 36.6689 4.48488 33.1573 6.53397 31.1368C8.58988 29.1095 10.6845 28.5538 10.8316 28.5167C11.2098 28.4222 11.6099 28.4819 11.9441 28.6825C12.2783 28.8831 12.5191 29.2083 12.6136 29.5865C12.7081 29.9647 12.6485 30.365 12.4479 30.6993C12.2473 31.0335 11.9222 31.2744 11.544 31.3689L11.544 31.3687L11.5352 31.3712C11.3969 31.4096 10.0628 31.8043 8.66934 33.1704C7.27006 34.5423 5.83383 36.8718 5.46945 40.7391L5.42978 41.16L5.85075 41.1203C9.7172 40.7559 12.047 39.3218 13.4197 37.9217C14.7858 36.5281 15.1828 35.19 15.2232 35.0344L15.2234 35.0337C15.3208 34.6559 15.5643 34.3323 15.9003 34.1341C16.2362 33.9359 16.6371 33.8792 17.0148 33.9767C17.3925 34.0741 17.7161 34.3176 17.9143 34.6536ZM3.6653 19.3141L3.16802 19.8112L3.8644 19.9083L12.3103 21.0861L12.4829 21.1102L12.6061 20.987L21.5954 12.0008L22.1931 11.4033H21.348H11.7244H11.5794L11.4769 11.5058L3.6653 19.3141ZM15.3326 22.4203L15.0853 22.6677L15.3327 22.9151L23.6717 31.2555L23.9193 31.5031L24.1668 31.2555L37.227 18.1932C37.2271 18.1931 37.2272 18.193 37.2273 18.1929C39.0228 16.4092 40.4157 14.2618 41.3125 11.895C42.2094 9.52803 42.5893 6.99649 42.4267 4.4705L42.4069 4.16274L42.0991 4.14365C39.5749 3.9871 37.0464 4.37104 34.6825 5.26981C32.3185 6.16859 30.1735 7.56152 28.3907 9.35556L15.3326 22.4203ZM35.1819 25.2394V24.3943L34.5844 24.9919L25.5974 33.9803L25.4741 34.1036L25.4983 34.2763L26.6805 42.7259L26.7779 43.4221L27.2747 42.9247L35.0795 35.1118L35.1819 35.0094V34.8645V25.2394Z" fill="black" stroke="white" stroke-width="0.7"></path></svg>