<svg xmlns="http://www.w3.org/2000/svg" width="34" height="50" viewBox="0 0 34 50" fill="none"><path d="M6.32729 42.2218H5.92729V42.6218V44.818V45.218H6.32729H27.5883H27.9883V44.818V42.6218V42.2218H27.5883H6.32729ZM5.92729 7.48305V7.88305H6.32729H27.5883H27.9883V7.48305V5.28688V4.88688H27.5883H6.32729H5.92729V5.28688V7.48305ZM27.5883 14.0716V13.6716H27.9883V14.0716H27.5883ZM31.4405 5.28688V13.6716H5.92729H2.47508V5.28688C2.47508 4.18189 2.85206 3.24753 3.61262 2.46191C4.37278 1.67669 5.27048 1.29321 6.32679 1.29453H6.32729H27.5883C28.6464 1.29453 29.5449 1.67888 30.3051 2.4641C31.0656 3.24971 31.4418 4.18319 31.4405 5.28641V5.28688ZM31.8405 14.0716H31.4405L31.8405 13.6716V14.0716ZM6.32729 0.894535H27.5883C28.7577 0.894535 29.7591 1.32498 30.5925 2.18588C31.4259 3.04678 31.8419 4.08045 31.8405 5.28688L6.32729 0.894535ZM2.47508 44.8184V44.818V36.4333H5.92729V38.2295V38.6295H6.32729H27.5883H27.9883V38.2295V36.4333H31.4405V44.818C31.4405 45.923 31.0635 46.8573 30.303 47.6429C29.5428 48.4282 28.6451 48.8116 27.5888 48.8103H27.5883H6.32729C5.26924 48.8103 4.37067 48.426 3.61049 47.6407C2.84995 46.8551 2.47378 45.9217 2.47508 44.8184ZM22.9852 30.7117L22.9857 30.7113L28.1946 25.3306L28.464 25.0524L28.1946 24.7742L22.9857 19.3936C22.6318 19.0281 22.4721 18.6188 22.4858 18.1461C22.5 17.6577 22.6662 17.2372 22.9915 16.8694C23.3464 16.5054 23.7525 16.326 24.2262 16.3118C24.6941 16.2977 25.0915 16.4598 25.4406 16.8205L32.191 23.7933C32.3683 23.9765 32.4856 24.1657 32.5535 24.3605C32.6267 24.5705 32.6643 24.7995 32.663 25.0505V25.0524C32.663 25.304 32.6248 25.5337 32.5514 25.7443C32.4833 25.9396 32.3664 26.1289 32.1905 26.312C32.1904 26.3121 32.1902 26.3123 32.19 26.3125L25.4406 33.2844C25.0897 33.6468 24.6915 33.8093 24.2241 33.7953C23.7508 33.7811 23.3457 33.6013 22.9922 33.2362C22.6678 32.8682 22.5012 32.4471 22.4858 31.9578C22.4709 31.4859 22.6303 31.0771 22.9852 30.7117ZM8.47594 33.2853L8.47502 33.2844L1.72464 26.3115C1.54729 26.1283 1.43001 25.9392 1.36211 25.7444C1.28892 25.5343 1.25135 25.3053 1.25257 25.0544V25.0524C1.25257 24.8009 1.29081 24.5712 1.36423 24.3605C1.4323 24.1652 1.54919 23.9759 1.72512 23.7928C1.72527 23.7927 1.72542 23.7925 1.72557 23.7924L8.47502 16.8205C8.82563 16.4583 9.22342 16.2966 9.69054 16.3117C10.1649 16.3272 10.5705 16.5068 10.9239 16.8692C11.248 17.2371 11.4145 17.658 11.4298 18.1471C11.4447 18.619 11.2853 19.0277 10.9304 19.3931L10.9299 19.3936L5.72098 24.7742L5.45164 25.0524L5.72098 25.3306L10.9299 30.7113C11.2838 31.0768 11.4435 31.4861 11.4298 31.9588C11.4156 32.4472 11.2494 32.8676 10.9242 33.2354C10.569 33.5997 10.1625 33.7799 9.68841 33.7953C9.2218 33.8105 8.82511 33.6484 8.47594 33.2853Z" fill="black" stroke="white" stroke-width="0.8"></path></svg>