<svg xmlns="http://www.w3.org/2000/svg" width="36" height="47" viewBox="0 0 36 47" fill="none"><path d="M32.31 2.70611C32.31 3.25839 32.7577 3.70611 33.31 3.70611H34.0633C34.6156 3.70611 35.0633 4.15382 35.0633 4.70611V45.3155C35.0633 45.8678 34.6156 46.3155 34.0633 46.3155H1.95801C1.40572 46.3155 0.958008 45.8678 0.958008 45.3155V4.70611C0.958008 4.15382 1.40572 3.70611 1.95801 3.70611H2.75571C3.30799 3.70611 3.75571 3.25839 3.75571 2.70611V1.8418C3.75571 1.28951 4.20342 0.841797 4.7557 0.841797H5.59781C6.15009 0.841797 6.59781 1.28951 6.59781 1.8418V2.70611C6.59781 3.25839 7.04553 3.70611 7.59781 3.70611H11.3264C11.8787 3.70611 12.3264 3.25839 12.3264 2.70611V1.8418C12.3264 1.28951 12.7741 0.841797 13.3264 0.841797H14.1685C14.7208 0.841797 15.1685 1.28951 15.1685 1.8418V2.70611C15.1685 3.25839 15.6162 3.70611 16.1685 3.70611H19.8972C20.4494 3.70611 20.8972 3.25839 20.8972 2.70611V1.8418C20.8972 1.28951 21.3449 0.841797 21.8972 0.841797H22.7393C23.2915 0.841797 23.7393 1.28951 23.7393 1.8418V2.70611C23.7393 3.25839 24.187 3.70611 24.7393 3.70611H28.4679C29.0202 3.70611 29.4679 3.25839 29.4679 2.70611V1.8418C29.4679 1.28951 29.9156 0.841797 30.4679 0.841797H31.31C31.8623 0.841797 32.31 1.28951 32.31 1.8418V2.70611ZM31.2212 43.4734C31.7735 43.4734 32.2212 43.0257 32.2212 42.4734V7.54821C32.2212 6.99593 31.7734 6.54821 31.2212 6.54821H4.80011C4.24783 6.54821 3.80011 6.99593 3.80011 7.54821V42.4734C3.80011 43.0257 4.24783 43.4734 4.80011 43.4734H31.2212ZM25.537 12.2324C26.0892 12.2324 26.537 12.6801 26.537 13.2324V14.0745C26.537 14.6268 26.0892 15.0745 25.537 15.0745H10.4843C9.93204 15.0745 9.48432 14.6268 9.48432 14.0745V13.2324C9.48432 12.6801 9.93204 12.2324 10.4843 12.2324H25.537ZM10.4843 37.8336C9.93204 37.8336 9.48432 37.3859 9.48432 36.8336V35.9915C9.48432 35.4392 9.93204 34.9915 10.4843 34.9915H25.537C26.0892 34.9915 26.537 35.4392 26.537 35.9915V36.8336C26.537 37.3859 26.0892 37.8336 25.537 37.8336H10.4843ZM10.4843 26.4429C9.93204 26.4429 9.48432 25.9952 9.48432 25.4429V24.6008C9.48432 24.0486 9.93204 23.6008 10.4843 23.6008H25.537C26.0892 23.6008 26.537 24.0486 26.537 24.6008V25.4429C26.537 25.9952 26.0892 26.4429 25.537 26.4429H10.4843Z" fill="black"></path></svg>