<svg xmlns="http://www.w3.org/2000/svg" width="41" height="40" viewBox="0 0 41 40" fill="none"><path fill-rule="evenodd" clip-rule="evenodd" d="M20.5 2.74297L5.51906 12.3426H35.4809L20.5 2.74297ZM21.1598 0.193457C20.9626 0.0670666 20.7343 0 20.5012 0C20.2682 0 20.0398 0.0670666 19.8426 0.193457L0.578956 12.5362C-0.46887 13.2075 -0.00179618 14.8569 1.23879 14.8569H39.7612C41.0018 14.8569 41.4689 13.2075 40.421 12.5362L21.1598 0.193457ZM0.729704 38.7428C0.729704 38.4094 0.859888 38.0897 1.09162 37.8539C1.32334 37.6181 1.63763 37.4857 1.96535 37.4857H39.0346C39.3624 37.4857 39.6767 37.6181 39.9084 37.8539C40.1401 38.0897 40.2703 38.4094 40.2703 38.7428C40.2703 39.0763 40.1401 39.396 39.9084 39.6318C39.6767 39.8675 39.3624 40 39.0346 40H1.96535C1.63763 40 1.32334 39.8675 1.09162 39.6318C0.859888 39.396 0.729704 39.0763 0.729704 38.7428ZM4.43663 17.3712C4.76435 17.3712 5.07864 17.5037 5.31037 17.7394C5.54209 17.9752 5.67228 18.295 5.67228 18.6284V33.7142C5.67228 34.0476 5.54209 34.3674 5.31037 34.6032C5.07864 34.8389 4.76435 34.9714 4.43663 34.9714C4.10892 34.9714 3.79463 34.8389 3.5629 34.6032C3.33117 34.3674 3.20099 34.0476 3.20099 33.7142V18.6284C3.20099 18.295 3.33117 17.9752 3.5629 17.7394C3.79463 17.5037 4.10892 17.3712 4.43663 17.3712ZM11.8505 17.3712C12.1782 17.3712 12.4925 17.5037 12.7242 17.7394C12.956 17.9752 13.0861 18.295 13.0861 18.6284V33.7142C13.0861 34.0476 12.956 34.3674 12.7242 34.6032C12.4925 34.8389 12.1782 34.9714 11.8505 34.9714C11.5228 34.9714 11.2085 34.8389 10.9768 34.6032C10.745 34.3674 10.6149 34.0476 10.6149 33.7142V18.6284C10.6149 18.295 10.745 17.9752 10.9768 17.7394C11.2085 17.5037 11.5228 17.3712 11.8505 17.3712ZM19.2644 17.3712C19.5921 17.3712 19.9064 17.5037 20.1381 17.7394C20.3698 17.9752 20.5 18.295 20.5 18.6284V33.7142C20.5 34.0476 20.3698 34.3674 20.1381 34.6032C19.9064 34.8389 19.5921 34.9714 19.2644 34.9714C18.9366 34.9714 18.6224 34.8389 18.3906 34.6032C18.1589 34.3674 18.0287 34.0476 18.0287 33.7142V18.6284C18.0287 18.295 18.1589 17.9752 18.3906 17.7394C18.6224 17.5037 18.9366 17.3712 19.2644 17.3712ZM26.6782 17.3712C27.0059 17.3712 27.3202 17.5037 27.5519 17.7394C27.7837 17.9752 27.9139 18.295 27.9139 18.6284V33.7142C27.9139 34.0476 27.7837 34.3674 27.5519 34.6032C27.3202 34.8389 27.0059 34.9714 26.6782 34.9714C26.3505 34.9714 26.0362 34.8389 25.8045 34.6032C25.5728 34.3674 25.4426 34.0476 25.4426 33.7142V18.6284C25.4426 18.295 25.5728 17.9752 25.8045 17.7394C26.0362 17.5037 26.3505 17.3712 26.6782 17.3712ZM34.0921 17.3712C34.4198 17.3712 34.7341 17.5037 34.9658 17.7394C35.1975 17.9752 35.3277 18.295 35.3277 18.6284V33.7142C35.3277 34.0476 35.1975 34.3674 34.9658 34.6032C34.7341 34.8389 34.4198 34.9714 34.0921 34.9714C33.7644 34.9714 33.4501 34.8389 33.2183 34.6032C32.9866 34.3674 32.8564 34.0476 32.8564 33.7142V18.6284C32.8564 18.295 32.9866 17.9752 33.2183 17.7394C33.4501 17.5037 33.7644 17.3712 34.0921 17.3712Z" fill="#7E7E7E"></path></svg>