<svg xmlns="http://www.w3.org/2000/svg" width="32" height="28" viewBox="0 0 32 28" fill="none"><path d="M8.31748 0.000247212C6.65124 0.000247212 5.28786 1.36564 5.28786 3.03291V10.766L2.42111 10.7658C1.09273 10.7658 0 11.8583 0 13.1882V20.6259C0 21.9444 1.07546 23.0239 2.38864 23.0424V27.2774H2.38889C2.38889 27.6764 2.71205 28.0001 3.11078 28.0001H3.49354C3.68504 28.0001 3.86869 27.9237 4.00389 27.7883L8.73961 23.0488H15.6286C16.9575 23.0488 18.0489 21.9553 18.0489 20.6259V18.0633H21.3999L27.1466 23.8146C27.6014 24.2694 28.3789 23.9472 28.3791 23.3037V18.0633H28.9699C30.6358 18.0633 32 16.6988 32 15.0314V3.03267C32 1.36513 30.6358 0 28.9699 0L8.31748 0.000247212ZM10.7025 7.22533C11.1812 7.22533 11.6403 7.41582 11.9786 7.75444C12.3173 8.09333 12.5073 8.55269 12.5073 9.03185C12.5073 9.51074 12.3173 9.97036 11.9786 10.309C11.6403 10.6479 11.1812 10.8381 10.7025 10.8381C10.2239 10.8381 9.76482 10.6479 9.42618 10.309C9.08781 9.97037 8.89757 9.51074 8.89757 9.03185C8.89757 8.5527 9.08781 8.09334 9.42618 7.75444C9.7648 7.41582 10.2239 7.22533 10.7025 7.22533ZM18.6441 7.22533C19.1228 7.22533 19.5818 7.41582 19.9205 7.75444C20.2588 8.09333 20.4491 8.55269 20.4491 9.03185C20.4491 9.51074 20.2588 9.97036 19.9205 10.309C19.5819 10.6479 19.1227 10.8381 18.6441 10.8381C18.1655 10.8381 17.7064 10.6479 17.368 10.309C17.0294 9.97037 16.8394 9.51074 16.8394 9.03185C16.8394 8.5527 17.0294 8.09334 17.368 7.75444C17.7064 7.41582 18.1655 7.22533 18.6441 7.22533ZM26.5859 7.22533C27.0646 7.22533 27.5237 7.41582 27.862 7.75444C28.2007 8.09333 28.3906 8.55269 28.3906 9.03185C28.3906 9.51074 28.2007 9.97036 27.862 10.309C27.5237 10.6479 27.0646 10.8381 26.5859 10.8381C26.1073 10.8381 25.6482 10.6479 25.3096 10.309C24.9712 9.97037 24.781 9.51074 24.781 9.03185C24.781 8.5527 24.9712 8.09334 25.3096 7.75444C25.6482 7.41582 26.1073 7.22533 26.5859 7.22533ZM2.42137 12.2114H5.28812V15.0318C5.28812 16.699 6.65176 18.0636 8.31774 18.0636H16.6054V20.6263C16.6054 21.1805 16.1823 21.6042 15.6288 21.6042L8.44118 21.6039C8.24967 21.6042 8.06603 21.6803 7.93083 21.8157L3.8331 25.9165V22.3266C3.8331 21.9276 3.50994 21.6039 3.11121 21.6039H2.42153C1.86807 21.6039 1.44446 21.1798 1.44446 20.626V13.1884C1.44446 12.6344 1.8678 12.211 2.42153 12.211L2.42137 12.2114Z" fill="white"></path></svg>