<svg xmlns="http://www.w3.org/2000/svg" width="45" height="45" viewBox="0 0 45 45" fill="none"><path d="M22.402 32.073V35.2535M22.402 16.2965V19.2565M22.402 43C34.3031 43 42.804 39.0952 42.804 30.404C42.804 20.957 37.7035 14.659 27.5025 9.93548L31.5149 5.149C31.7187 4.83495 31.8293 4.47658 31.8354 4.11021C31.8414 3.74383 31.7428 3.38248 31.5495 3.06278C31.3562 2.74308 31.075 2.47639 30.7345 2.28975C30.394 2.10311 30.0063 2.00315 29.6107 2H15.1933C14.7976 2.00315 14.4099 2.10311 14.0694 2.28975C13.7289 2.47639 13.4478 2.74308 13.2545 3.06278C13.0612 3.38248 12.9625 3.74383 12.9686 4.11021C12.9747 4.47658 13.0853 4.83495 13.2891 5.149L17.3015 9.96697C7.1005 14.722 2 21.02 2 30.467C2 39.0952 10.5008 43 22.402 43Z" stroke="#7E7E7E" stroke-width="2.5" stroke-linecap="round" stroke-linejoin="round"></path></svg>