<svg xmlns="http://www.w3.org/2000/svg" width="32" height="48" viewBox="0 0 32 48" fill="none"><path d="M20.9387 3.19335L19.159 2.4012L2.25481 24.7582L1.1934 26.162C0.880176 25.5091 0.950295 24.7406 1.38304 24.1496L18.4032 1.87805L18.4152 1.86238L18.4266 1.84624C18.4571 1.80286 18.4897 1.7609 18.5244 1.7205L18.5246 1.72024C18.6481 1.57612 18.7917 1.44947 18.9514 1.3442L18.9545 1.34213C19.2998 1.11269 19.4906 1.03052 19.7912 1.00607C19.8455 1.00213 19.9018 1.00009 19.959 1.00009H19.9975C20.0104 1.00019 20.0185 1.00036 20.0257 1.00065L20.0257 1.00069L20.0348 1.00099C21.1473 1.0367 22.0136 1.9329 22.0136 3.00427V3.00536C22.0137 3.16137 21.9947 3.31687 21.9568 3.46847L21.9502 3.49477L21.9451 3.52138L19.2172 17.6452L18.9878 18.8328L20.1973 18.8348L28.9627 18.8498C28.9635 18.8498 28.9644 18.8498 28.9652 18.8498C29.7028 18.856 30.3708 19.2474 30.7293 19.8601L28.9512 19.8542L17.7386 19.8169L20.9387 3.19335ZM3.03763 27.3183C2.31815 27.3131 1.66461 26.9415 1.29949 26.3553L3.04902 26.3613L14.2816 26.4L11.0578 44.8241L12.862 45.57L29.767 21.4278L30.7885 19.9689C31.1232 20.6307 31.0577 21.4217 30.6128 22.0247L30.6066 22.0331L30.6005 22.0416L13.56 46.1747C13.1358 46.7455 12.6366 47 12.042 47H12.0413C11.7612 47.0002 11.4843 46.9439 11.2276 46.8348L11.2261 46.8342C10.3421 46.4602 9.85346 45.5408 10.0262 44.631L10.0278 44.6223L10.0293 44.6136L12.7868 28.5506L12.9861 27.3899L11.8084 27.3814L3.03766 27.3183C3.03765 27.3183 3.03764 27.3183 3.03763 27.3183ZM20.3921 16.8352L22.9269 3.71102L31.6719 19.4999C31.1561 18.495 30.1131 17.8581 28.9699 17.8498L21.2172 17.8366L21.1809 18.0245L20.1991 17.8348L20.2008 16.8348L20.3921 16.8352Z" stroke="#7E7E7E" stroke-width="2"></path></svg>