<svg xmlns="http://www.w3.org/2000/svg" width="52" height="55" viewBox="0 0 52 55" fill="none"><mask id="mask0_880_3974" style="mask-type:luminance" maskUnits="userSpaceOnUse" x="3" y="5" width="49" height="50"><path d="M3.02441 5.95117H51.4119V54.2748H3.02441V5.95117Z" fill="white"></path></mask><g mask="url(#mask0_880_3974)"><path d="M6.42186 54.275C5.49277 54.275 4.69944 54.0275 4.11909 53.4524C1.73379 51.0671 4.93371 45.04 8.0378 40.4078C8.0937 40.3279 8.16292 40.2587 8.24278 40.2028C8.32531 40.1496 8.41316 40.1123 8.51166 40.0937C8.6075 40.075 8.70334 40.075 8.79918 40.0937C8.89768 40.1123 8.98553 40.1496 9.06805 40.2055C9.14792 40.2587 9.21714 40.3279 9.27304 40.4105C9.32628 40.4903 9.36355 40.5809 9.38219 40.6767C9.40083 40.7725 9.40083 40.871 9.38219 40.9669C9.36355 41.0627 9.32628 41.1532 9.27038 41.2331C4.74736 47.9817 4.23356 51.4744 5.16798 52.4062C6.03052 53.2634 8.95358 52.928 14.6054 49.4139C19.8232 46.1687 25.9968 41.076 31.992 35.0728C37.9898 29.0697 43.0799 22.8854 46.3144 17.6623C49.8258 12.0025 50.1586 9.0688 49.304 8.21158C48.3829 7.29048 44.9674 7.77499 38.3679 12.1702C38.2853 12.2261 38.1975 12.2607 38.1016 12.2794C38.0058 12.298 37.91 12.298 37.8141 12.2794C37.7156 12.2607 37.6278 12.2235 37.5479 12.1676C37.4654 12.1143 37.3962 12.0451 37.3429 11.9626C37.2897 11.8827 37.2524 11.7922 37.2338 11.6964C37.2151 11.6005 37.2151 11.5047 37.2338 11.4062C37.2551 11.3103 37.2897 11.2225 37.3456 11.14C37.4015 11.0601 37.468 10.9909 37.5506 10.9376C42.0896 7.91342 47.9916 4.80401 50.3476 7.16269C52.4986 9.31638 50.0255 14.4836 47.571 18.4423C44.2725 23.7586 39.1106 30.036 33.0329 36.1164C26.9578 42.1968 20.6911 47.3667 15.3774 50.6705C12.4916 52.4701 8.95624 54.275 6.42186 54.275Z" fill="#969696"></path></g><path d="M25.4549 43.8395C25.1647 43.8369 24.8852 43.781 24.619 43.6665L8.22007 36.8301C7.79412 36.649 7.4507 36.3615 7.19779 35.9728C6.94223 35.5815 6.8171 35.1556 6.82243 34.6897V15.5487C6.8171 15.0828 6.94223 14.6542 7.19779 14.2629C7.45336 13.8742 7.79412 13.5894 8.22273 13.4057L24.5471 5.93031C25.1541 5.65344 25.7584 5.65344 26.3654 5.93031L42.6898 13.4057C43.1184 13.5894 43.4591 13.8742 43.7147 14.2629C43.9703 14.6542 44.0954 15.0828 44.0901 15.5487V34.6923C44.0954 35.1582 43.9703 35.5868 43.7147 35.9755C43.4618 36.3668 43.1184 36.6517 42.6898 36.8354L26.2935 43.6665C26.0273 43.781 25.7478 43.8369 25.4549 43.8395ZM25.4549 7.21347C25.3538 7.21347 25.2553 7.23477 25.1621 7.27736L8.82438 14.758L8.79509 14.7714C8.64069 14.8406 8.52089 14.9444 8.43038 15.0855C8.34252 15.2266 8.29727 15.381 8.30259 15.5487V34.6923C8.29993 34.8601 8.34252 35.0145 8.43304 35.1529C8.52089 35.294 8.64335 35.3978 8.79509 35.467L25.1834 42.3088C25.3644 42.386 25.5454 42.386 25.7265 42.3088L42.1227 35.4724C42.2745 35.4058 42.3969 35.302 42.4848 35.1609C42.5753 35.0198 42.6179 34.8654 42.6152 34.6977V15.5487C42.6179 15.381 42.5753 15.2266 42.4848 15.0855C42.3969 14.9444 42.2745 14.8406 42.1227 14.7714L42.0935 14.758L25.7478 7.2747C25.6546 7.2321 25.5587 7.21081 25.4549 7.21347Z" fill="#969696"></path><path d="M25.4542 43.2053C25.3557 43.2053 25.2625 43.1867 25.172 43.1494C25.0815 43.1122 25.0016 43.0589 24.9324 42.9897C24.8632 42.9205 24.81 42.8406 24.7727 42.7501C24.7354 42.6596 24.7168 42.5637 24.7168 42.4653V40.6736C24.7168 40.5751 24.7354 40.4819 24.7727 40.3914C24.81 40.3009 24.8632 40.221 24.9324 40.1518C25.0016 40.0826 25.0815 40.0294 25.172 39.9921C25.2625 39.9548 25.3557 39.9362 25.4542 39.9362C25.5527 39.9362 25.6459 39.9548 25.7364 39.9921C25.8269 40.0294 25.9068 40.0826 25.976 40.1518C26.0452 40.221 26.0985 40.3009 26.1384 40.3914C26.1757 40.4819 26.1943 40.5751 26.1943 40.6736V42.4653C26.1943 42.5637 26.1757 42.6596 26.1384 42.7501C26.1011 42.8406 26.0479 42.9205 25.9787 42.9897C25.9094 43.0589 25.8269 43.1122 25.7364 43.1494C25.6459 43.1867 25.5527 43.2053 25.4542 43.2053ZM25.4542 38.9459C25.3557 38.9459 25.2625 38.9272 25.172 38.89C25.0815 38.8527 25.0016 38.7994 24.9324 38.7302C24.8632 38.661 24.81 38.5812 24.7727 38.4906C24.7354 38.4001 24.7168 38.3043 24.7168 38.2058V36.3556C24.7168 36.2571 24.7354 36.1639 24.7727 36.0734C24.81 35.9829 24.8632 35.903 24.9324 35.8338C25.0016 35.7646 25.0815 35.7113 25.172 35.6741C25.2625 35.6368 25.3557 35.6182 25.4542 35.6182C25.5527 35.6182 25.6459 35.6368 25.7364 35.6741C25.8269 35.7113 25.9068 35.7646 25.976 35.8338C26.0452 35.903 26.0985 35.9829 26.1384 36.0734C26.1757 36.1639 26.1943 36.2571 26.1943 36.3556V38.2058C26.1943 38.3043 26.1757 38.4001 26.1384 38.4906C26.1011 38.5812 26.0479 38.661 25.9787 38.7302C25.9094 38.7994 25.8269 38.8527 25.7364 38.89C25.6459 38.9272 25.5527 38.9459 25.4542 38.9459ZM25.4542 34.6305C25.3557 34.6305 25.2625 34.6092 25.172 34.5719C25.0815 34.5347 25.0016 34.4814 24.9324 34.4122C24.8632 34.343 24.81 34.2631 24.7727 34.1726C24.7354 34.0821 24.7168 33.9863 24.7168 33.8878V32.0375C24.7168 31.9417 24.7354 31.8459 24.7727 31.7554C24.81 31.6648 24.8632 31.585 24.9324 31.5158C25.0016 31.4465 25.0815 31.3933 25.172 31.356C25.2625 31.3188 25.3557 31.3001 25.4542 31.3001C25.5527 31.3001 25.6459 31.3188 25.7364 31.356C25.8269 31.3933 25.9068 31.4465 25.976 31.5158C26.0452 31.585 26.0985 31.6648 26.1384 31.7554C26.1757 31.8459 26.1943 31.9417 26.1943 32.0375V33.8878C26.1943 33.9863 26.1757 34.0821 26.1384 34.1726C26.1011 34.2631 26.0479 34.343 25.9787 34.4122C25.9094 34.4814 25.8269 34.5347 25.7364 34.5719C25.6459 34.6092 25.5527 34.6305 25.4542 34.6305ZM25.4542 30.3125C25.3557 30.3125 25.2625 30.2938 25.172 30.2539C25.0815 30.2166 25.0016 30.1634 24.9324 30.0942C24.8632 30.025 24.81 29.9451 24.7727 29.8546C24.7354 29.7641 24.7168 29.6709 24.7168 29.5724V27.7222C24.7168 27.6237 24.7354 27.5278 24.7727 27.4373C24.81 27.3468 24.8632 27.2669 24.9324 27.1977C25.0016 27.1285 25.0815 27.0753 25.172 27.038C25.2625 27.0007 25.3557 26.9821 25.4542 26.9821C25.5527 26.9821 25.6459 27.0007 25.7364 27.038C25.8269 27.0753 25.9068 27.1285 25.976 27.1977C26.0452 27.2669 26.0985 27.3468 26.1384 27.4373C26.1757 27.5278 26.1943 27.6237 26.1943 27.7222V29.5724C26.1943 29.6709 26.1757 29.7641 26.1384 29.8546C26.1011 29.9451 26.0479 30.025 25.9787 30.0942C25.9094 30.1634 25.8269 30.2166 25.7364 30.2539C25.6459 30.2938 25.5527 30.3125 25.4542 30.3125ZM25.4542 25.9944C25.3557 25.9944 25.2625 25.9758 25.172 25.9385C25.0815 25.9013 25.0016 25.8454 24.9324 25.7761C24.8632 25.7069 24.81 25.6271 24.7727 25.5365C24.7354 25.446 24.7168 25.3528 24.7168 25.2543V23.4041C24.7168 23.3056 24.7354 23.2098 24.7727 23.1193C24.81 23.0288 24.8632 22.9489 24.9324 22.8797C25.0016 22.8105 25.0815 22.7572 25.172 22.72C25.2625 22.6827 25.3557 22.6641 25.4542 22.6641C25.5527 22.6641 25.6459 22.6827 25.7364 22.72C25.8269 22.7572 25.9068 22.8105 25.976 22.8797C26.0452 22.9489 26.0985 23.0288 26.1384 23.1193C26.1757 23.2098 26.1943 23.3056 26.1943 23.4041V25.2543C26.1943 25.3528 26.1757 25.446 26.1384 25.5365C26.1011 25.6271 26.0479 25.7069 25.9787 25.7761C25.9094 25.8454 25.8269 25.9013 25.7364 25.9385C25.6459 25.9758 25.5527 25.9944 25.4542 25.9944Z" fill="#969696"></path><path d="M25.4576 24.1444C25.2845 24.1444 25.1301 24.0912 24.997 23.9847C24.8612 23.8782 24.7734 23.7398 24.7361 23.572C24.6962 23.4043 24.7122 23.2446 24.7867 23.0875C24.8586 22.9331 24.973 22.816 25.1275 22.7388L26.786 21.9215C26.8738 21.8762 26.9643 21.8523 27.0628 21.847C27.1613 21.839 27.2572 21.8523 27.3504 21.8842C27.4409 21.9135 27.5261 21.9614 27.5979 22.028C27.6725 22.0919 27.7311 22.1691 27.7763 22.2569C27.8189 22.3448 27.8429 22.438 27.8509 22.5365C27.8562 22.6323 27.8429 22.7281 27.8136 22.8213C27.7816 22.9145 27.7337 22.997 27.6698 23.0716C27.6033 23.1461 27.5287 23.2047 27.4409 23.2473L25.7823 24.0672C25.6812 24.1178 25.572 24.1444 25.4576 24.1444ZM29.3204 22.2303C29.15 22.233 28.9956 22.1771 28.8625 22.0706C28.7267 21.9641 28.6389 21.8283 28.6016 21.6606C28.5616 21.4929 28.5803 21.3305 28.6522 21.1761C28.7267 21.019 28.8385 20.9046 28.9929 20.8273L30.6541 20.0074C30.742 19.9648 30.8351 19.9382 30.9336 19.9329C31.0321 19.9275 31.1253 19.9408 31.2185 19.9701C31.3117 20.0021 31.3942 20.0527 31.4687 20.1165C31.5433 20.1804 31.6018 20.2576 31.6444 20.3455C31.687 20.4333 31.711 20.5265 31.719 20.625C31.7243 20.7235 31.711 20.8194 31.679 20.9125C31.6471 21.0057 31.5992 21.0882 31.5353 21.1628C31.4714 21.2347 31.3942 21.2932 31.3063 21.3385L29.6478 22.1584C29.5466 22.209 29.4348 22.233 29.3204 22.2303ZM33.1858 20.3189C33.0155 20.3189 32.861 20.2656 32.7279 20.1591C32.5922 20.05 32.507 19.9142 32.467 19.7465C32.4271 19.5788 32.4457 19.4164 32.5176 19.262C32.5922 19.1076 32.704 18.9905 32.8584 18.9133L34.5169 18.096C34.6048 18.0534 34.6953 18.0294 34.7938 18.0241C34.8896 18.0188 34.9855 18.0321 35.076 18.064C35.1691 18.096 35.249 18.1439 35.3235 18.2078C35.3954 18.2717 35.454 18.3489 35.4966 18.4367C35.5392 18.5219 35.5658 18.6151 35.5711 18.7136C35.5791 18.8094 35.5658 18.9053 35.5365 18.9958C35.5046 19.089 35.4593 19.1715 35.3954 19.246C35.3315 19.3206 35.257 19.3791 35.1691 19.4217L33.5133 20.2417C33.4121 20.2923 33.303 20.3189 33.1858 20.3189ZM37.0513 18.4074C36.8809 18.4074 36.7265 18.3542 36.5934 18.245C36.4576 18.1386 36.3724 18.0028 36.3325 17.8351C36.2926 17.6674 36.3112 17.505 36.3831 17.3506C36.4576 17.1935 36.5694 17.079 36.7238 17.0018L38.3824 16.1819C38.4702 16.1393 38.5634 16.1153 38.6592 16.1073C38.7577 16.102 38.8536 16.1153 38.9468 16.1473C39.0399 16.1792 39.1225 16.2271 39.1943 16.2937C39.2689 16.3576 39.3274 16.4348 39.37 16.5226C39.4126 16.6105 39.4366 16.7037 39.4446 16.8022C39.4499 16.9007 39.4366 16.9965 39.4046 17.087C39.3727 17.1802 39.3248 17.2654 39.2609 17.3372C39.1943 17.4118 39.1198 17.4704 39.0319 17.513L37.3734 18.3329C37.2723 18.3835 37.1658 18.4074 37.0513 18.4074ZM40.9194 16.4933C40.7464 16.4933 40.592 16.4401 40.4589 16.3336C40.3231 16.2271 40.2379 16.0887 40.198 15.921C40.158 15.7533 40.1767 15.5909 40.2486 15.4365C40.3231 15.2821 40.4376 15.1649 40.5893 15.0877L42.0029 14.3902C42.0908 14.345 42.1839 14.3157 42.2851 14.3077C42.3836 14.2971 42.4821 14.3077 42.5753 14.3397C42.6711 14.3689 42.7563 14.4169 42.8335 14.4834C42.9081 14.5473 42.9693 14.6245 43.0119 14.715C43.0571 14.8055 43.0811 14.9014 43.0891 14.9999C43.0944 15.101 43.0811 15.1969 43.0465 15.2927C43.0145 15.3859 42.964 15.4711 42.8947 15.5429C42.8282 15.6175 42.7483 15.6761 42.6578 15.716L41.2495 16.4161C41.143 16.4667 41.0339 16.4933 40.9194 16.4933Z" fill="#969696"></path><path d="M25.4547 24.1442C25.3403 24.1442 25.2311 24.1176 25.1273 24.067L23.4714 23.247C23.3862 23.2018 23.3144 23.1432 23.2531 23.0687C23.1892 22.9968 23.144 22.9143 23.1147 22.8211C23.0854 22.7306 23.0748 22.6374 23.0801 22.5416C23.0881 22.4457 23.112 22.3525 23.1546 22.2674C23.1972 22.1795 23.2558 22.105 23.3277 22.0411C23.3996 21.9772 23.4794 21.9293 23.5699 21.8973C23.6604 21.8654 23.7536 21.8494 23.8495 21.8547C23.9453 21.8574 24.0385 21.8813 24.1237 21.9213L25.7822 22.7386C25.9366 22.8158 26.0484 22.9329 26.1229 23.0873C26.1975 23.2417 26.2135 23.4041 26.1735 23.5718C26.1363 23.7395 26.0484 23.8753 25.9126 23.9845C25.7795 24.0909 25.6251 24.1442 25.4547 24.1442ZM21.5893 22.2301C21.4748 22.2301 21.3657 22.2061 21.2645 22.1555L19.606 21.3383C19.5208 21.293 19.4436 21.2344 19.3823 21.1599C19.3184 21.0854 19.2705 21.0028 19.2412 20.9096C19.2093 20.8191 19.1987 20.7233 19.204 20.6275C19.212 20.529 19.2359 20.4384 19.2785 20.3506C19.3238 20.2627 19.3797 20.1882 19.4542 20.1216C19.5261 20.0578 19.6086 20.0098 19.6991 19.9779C19.7923 19.9459 19.8855 19.9326 19.984 19.938C20.0798 19.9433 20.173 19.9672 20.2609 20.0098L21.9167 20.8298C22.0711 20.907 22.1856 21.0215 22.2575 21.1785C22.332 21.3329 22.348 21.4953 22.3107 21.663C22.2708 21.8308 22.1829 21.9665 22.0498 22.073C21.9141 22.1795 21.7623 22.2327 21.5893 22.2327V22.2301ZM17.7185 20.3186C17.604 20.3186 17.4949 20.292 17.3937 20.2414L15.7352 19.4215C15.6473 19.3789 15.5728 19.3203 15.5062 19.2458C15.4423 19.1713 15.3944 19.0887 15.3625 18.9956C15.3305 18.9024 15.3199 18.8065 15.3252 18.7107C15.3332 18.6122 15.3571 18.519 15.3997 18.4312C15.445 18.3433 15.5036 18.2661 15.5754 18.2022C15.65 18.1357 15.7325 18.0878 15.8257 18.0585C15.9189 18.0265 16.0147 18.0132 16.1132 18.0212C16.209 18.0265 16.3022 18.0505 16.3901 18.0957L18.0459 18.913C18.2003 18.9902 18.3148 19.1074 18.3867 19.2618C18.4612 19.4162 18.4772 19.5786 18.4399 19.7463C18.4 19.914 18.3122 20.0498 18.179 20.1589C18.0433 20.2654 17.8915 20.3186 17.7185 20.3186ZM13.853 18.4072C13.7385 18.4046 13.6294 18.3806 13.5282 18.33L11.875 17.5127C11.7872 17.4701 11.71 17.4116 11.6461 17.337C11.5822 17.2625 11.5343 17.18 11.5023 17.0868C11.4704 16.9936 11.4597 16.8978 11.4651 16.7993C11.4704 16.7008 11.497 16.6103 11.5396 16.5197C11.5822 16.4319 11.6408 16.3573 11.7153 16.2908C11.7898 16.2269 11.8724 16.179 11.9655 16.147C12.0587 16.1151 12.1546 16.1044 12.2531 16.1098C12.3489 16.1178 12.4421 16.1417 12.5299 16.1843L14.1885 17.0069C14.3402 17.0815 14.4547 17.1986 14.5292 17.353C14.6011 17.5101 14.6197 17.6698 14.5798 17.8375C14.5399 18.0052 14.452 18.1437 14.3189 18.2501C14.1831 18.3566 14.0314 18.4099 13.8583 18.4099L13.853 18.4072ZM9.99022 16.4931C9.87309 16.4931 9.76394 16.4665 9.66011 16.4159L8.24916 15.7158C8.15865 15.6758 8.07612 15.6173 8.00957 15.5454C7.94035 15.4708 7.88977 15.3857 7.85516 15.2925C7.82055 15.1966 7.80458 15.1008 7.81257 14.9996C7.81789 14.8985 7.84185 14.8026 7.88711 14.7121C7.93237 14.6216 7.99093 14.5444 8.06814 14.4779C8.14534 14.414 8.23053 14.366 8.32637 14.3341C8.4222 14.3048 8.5207 14.2942 8.62187 14.3048C8.72037 14.3128 8.81621 14.3421 8.90406 14.39L10.3283 15.0875C10.4827 15.1647 10.5945 15.2818 10.6691 15.4362C10.741 15.5906 10.7596 15.753 10.7197 15.9208C10.6824 16.0885 10.5945 16.2269 10.4588 16.3334C10.3257 16.4399 10.1712 16.4931 10.0009 16.4931H9.99022Z" fill="#969696"></path><path d="M44.7341 47.9444C41.819 47.9444 37.5249 45.5378 34.0269 43.1871C33.9443 43.1312 33.8778 43.0647 33.8219 42.9821C33.7686 42.8996 33.7314 42.8118 33.7127 42.7159C33.6941 42.6174 33.6941 42.5216 33.7127 42.4257C33.7314 42.3299 33.7686 42.2394 33.8245 42.1569C33.8778 42.077 33.947 42.0078 34.0269 41.9545C34.1094 41.8986 34.1972 41.8614 34.2957 41.8427C34.3916 41.8241 34.4874 41.8241 34.5833 41.8427C34.6791 41.8614 34.7696 41.8986 34.8521 41.9545C41.5901 46.4855 45.0748 46.9967 46.0093 46.0623C46.8638 45.205 46.5284 42.2713 43.0197 36.6116C39.7771 31.3884 34.6924 25.2042 28.6972 19.201C22.702 13.1978 16.5285 8.10777 11.3133 4.86259C5.65883 1.35386 2.73045 1.0131 1.87323 1.87032C0.954783 2.79143 1.43664 6.21231 5.82655 12.8251C5.88245 12.9077 5.91706 12.9955 5.93836 13.094C5.95699 13.1898 5.95699 13.2857 5.93569 13.3815C5.91706 13.4774 5.87979 13.5679 5.82388 13.6477C5.77064 13.7303 5.70142 13.7968 5.62156 13.8527C5.53903 13.906 5.45118 13.9432 5.35268 13.9619C5.25684 13.9805 5.161 13.9805 5.06517 13.9619C4.96933 13.9406 4.88148 13.9033 4.79895 13.8501C4.71642 13.7942 4.64987 13.7276 4.59663 13.6451C1.58039 9.09544 -1.52636 3.18277 0.829661 0.821425C2.97803 -1.32961 8.13997 1.14887 12.0906 3.60605C17.4016 6.9098 23.671 12.0771 29.7434 18.1628C35.8132 24.2485 40.9751 30.5205 44.2789 35.8396C46.7334 39.7955 49.2065 44.9681 47.0582 47.1165C46.4725 47.6942 45.6738 47.9444 44.7341 47.9444Z" fill="#969696"></path></svg>