<svg xmlns="http://www.w3.org/2000/svg" width="76" height="47" viewBox="0 0 76 47" fill="none"><path d="M27.0471 35.1006C26.3999 35.1006 25.8711 35.6269 25.8711 36.2715C25.8711 36.9136 26.3999 37.4425 27.0471 37.4425H36.4574C37.102 37.4425 37.6333 36.9136 37.6333 36.2715C37.6333 35.6269 37.102 35.1006 36.4574 35.1006H27.0471Z" fill="#969696"></path><path d="M10.642 35.9214C10.642 36.0524 10.6168 36.1783 10.5664 36.3017C10.5161 36.4225 10.443 36.5308 10.3499 36.624C10.2567 36.7172 10.1484 36.7877 10.025 36.838C9.90165 36.8884 9.77574 36.9136 9.64228 36.9136C9.51134 36.9136 9.38291 36.8884 9.25952 36.838C9.13865 36.7877 9.03037 36.7172 8.93468 36.624C8.84151 36.5308 8.771 36.4225 8.71812 36.3017C8.66776 36.1783 8.64258 36.0524 8.64258 35.9214C8.64258 35.788 8.66776 35.6621 8.71812 35.5387C8.771 35.4178 8.84151 35.3095 8.93468 35.2163C9.03037 35.1232 9.13865 35.0527 9.25952 35.0023C9.38291 34.9519 9.51134 34.9268 9.64228 34.9268C9.77574 34.9268 9.90165 34.9519 10.025 35.0023C10.1484 35.0527 10.2567 35.1232 10.3499 35.2163C10.443 35.3095 10.5161 35.4178 10.5664 35.5387C10.6168 35.6621 10.642 35.788 10.642 35.9214Z" fill="#969696"></path><path d="M6.70351 35.9214C6.70351 36.0524 6.67832 36.1783 6.62544 36.3017C6.57508 36.4225 6.50457 36.5308 6.40888 36.624C6.31571 36.7172 6.20743 36.7877 6.08656 36.838C5.96317 36.8884 5.83475 36.9136 5.7038 36.9136C5.57034 36.9136 5.44192 36.8884 5.32105 36.838C5.19766 36.7877 5.08938 36.7172 4.99621 36.624C4.90303 36.5308 4.83001 36.4225 4.77965 36.3017C4.72928 36.1783 4.7041 36.0524 4.7041 35.9214C4.7041 35.788 4.72928 35.6621 4.77965 35.5387C4.83001 35.4178 4.90303 35.3095 4.99621 35.2163C5.08938 35.1232 5.19766 35.0527 5.32105 35.0023C5.44192 34.9519 5.57034 34.9268 5.7038 34.9268C5.83475 34.9268 5.96317 34.9519 6.08656 35.0023C6.20743 35.0527 6.31571 35.1232 6.40888 35.2163C6.50457 35.3095 6.57508 35.4178 6.62544 35.5387C6.67832 35.6621 6.70351 35.788 6.70351 35.9214Z" fill="#969696"></path><path d="M26.2844 9.30473C25.9319 8.77844 25.1663 8.60217 24.6375 8.95219L14.0538 15.9728C13.6987 16.207 13.5225 16.557 13.5225 16.9674C13.5225 17.3754 13.6987 17.7279 14.0538 17.9621L24.6375 24.9802C25.1663 25.3327 25.9319 25.2143 26.2844 24.6301C26.6369 24.1038 26.5186 23.3434 25.9319 22.9933L16.8162 16.9674L25.9319 10.9415C26.4607 10.5915 26.6369 9.83102 26.2844 9.30473Z" fill="#969696"></path><path d="M37.2205 24.6298C37.5731 25.1561 38.3386 25.3324 38.8674 24.9798L49.4512 17.9618C49.8037 17.7276 49.98 17.375 49.98 16.9671C49.98 16.5566 49.8037 16.2066 49.4512 15.9724L38.8674 8.95186C38.3386 8.60184 37.5731 8.71767 37.2205 9.3044C36.868 9.83069 36.9864 10.5912 37.5731 10.9412L46.6888 16.9671L37.5731 22.993C37.0443 23.343 36.868 24.1035 37.2205 24.6298Z" fill="#969696"></path><path d="M32.9863 7.89977L28.2824 25.4487C28.1062 26.0933 28.5166 26.7355 29.1059 26.8538C29.2217 26.8538 29.2821 26.9117 29.398 26.9117C29.9268 26.9117 30.3977 26.5617 30.516 26.0354L35.2199 8.48398C35.3962 7.84185 34.9857 7.19721 34.3965 7.08138C33.8098 6.90511 33.1626 7.25765 32.9863 7.89977Z" fill="#969696"></path><mask id="mask0_880_3956" style="mask-type:luminance" maskUnits="userSpaceOnUse" x="0" y="0" width="64" height="47"><path d="M0 0H63.7291V46.8022H0V0Z" fill="white"></path></mask><g mask="url(#mask0_880_3956)"><path d="M27.0474 44.4607H23.5194C22.8723 44.4607 22.3435 44.987 22.3435 45.6316C22.3435 46.2738 22.8723 46.8001 23.5194 46.8001H39.9856C40.6302 46.8001 41.1615 46.2738 41.1615 45.6316C41.1615 44.987 40.6302 44.4607 39.9856 44.4607H36.4576V40.9504H59.9771C61.5056 40.9504 62.7999 39.9558 63.2708 38.6111H62.0344C61.5056 38.6111 61.0372 38.5532 60.5663 38.3769C60.3901 38.4952 60.1534 38.6111 59.9192 38.6111H3.52792C2.88075 38.6111 2.35194 38.0848 2.35194 37.4426V33.9324H52.0978L51.9215 33.7561C51.3323 33.1719 50.8639 32.4114 50.6272 31.5905H2.35194V3.51322C2.35194 2.86857 2.88075 2.34228 3.52792 2.34228H59.9771C60.6242 2.34228 61.1531 2.86857 61.1531 3.51322V9.47869C61.4477 9.42078 61.7423 9.36286 62.0948 9.36286H63.505V3.51322C63.505 1.5818 61.9186 0.00292969 59.9771 0.00292969H3.52792C1.58643 0.00292969 0 1.5818 0 3.51322V37.4426C0 39.3715 1.58643 40.9504 3.52792 40.9504H27.0474V44.4607ZM29.3993 40.9504H34.1032V44.4607H29.3993V40.9504Z" fill="#969696"></path></g><mask id="mask1_880_3956" style="mask-type:luminance" maskUnits="userSpaceOnUse" x="50" y="11" width="26" height="26"><path d="M50.1914 11.6992H75.2671V36.1957H50.1914V11.6992Z" fill="white"></path></mask><g mask="url(#mask1_880_3956)"><path d="M72.9721 20.3016C72.8537 20.0095 72.7354 19.7753 72.6195 19.4832C73.3825 18.3702 73.2667 16.8492 72.267 15.8546L71.091 14.6861C70.5597 14.1599 69.7967 13.8677 69.0312 13.8677C68.4445 13.8677 67.9156 14.0415 67.4448 14.3336C67.208 14.2178 66.9159 14.1019 66.6213 13.9836C66.3267 12.6389 65.1507 11.7021 63.7985 11.7021H62.1516C60.7415 11.7021 59.5655 12.6968 59.3288 13.9836C59.0367 14.1019 58.8 14.2178 58.5054 14.3336C58.037 14.0415 57.5056 13.8677 56.9189 13.8677C56.1534 13.8677 55.3904 14.1599 54.8616 14.6861L53.6856 15.8546C52.6859 16.8492 52.5676 18.3702 53.3306 19.4832C53.2147 19.7174 53.0964 20.0095 52.978 20.3016C51.6258 20.5937 50.6865 21.7646 50.6865 23.1093V24.7486C50.6865 26.1512 51.6862 27.3222 52.978 27.5564C53.0964 27.8485 53.2147 28.0827 53.3306 28.3748C53.0385 28.8431 52.8622 29.3694 52.8622 29.9536C52.8622 30.7141 53.1543 31.4746 53.6856 32.0009L54.8616 33.1718C55.3904 33.6981 56.1534 33.9902 56.9189 33.9902C57.5056 33.9902 58.037 33.8139 58.5054 33.5218C58.7421 33.6402 59.0367 33.756 59.3288 33.8719C59.6234 35.2191 60.7994 36.1533 62.1516 36.1533H63.7985C65.2086 36.1533 66.3871 35.1611 66.6213 33.8719C66.9159 33.756 67.1501 33.6402 67.4448 33.5218C67.9156 33.8139 68.4445 33.9902 69.0312 33.9902C69.7967 33.9902 70.5597 33.6981 71.091 33.1718L72.267 32.0009C72.7958 31.4746 73.0904 30.7141 73.0904 29.9536C73.0904 29.3694 72.9142 28.8431 72.6195 28.3748C72.7354 28.1406 72.8537 27.8485 72.9721 27.5564C74.3243 27.2617 75.2661 26.0933 75.2661 24.7486V23.1093C75.2661 21.7646 74.2664 20.5937 72.9721 20.3016ZM72.9142 24.8066C72.9142 25.0987 72.6774 25.3328 72.3828 25.3328H71.1489C70.9147 26.6196 70.4439 27.7301 69.7388 28.7248L70.6201 29.6036C70.8543 29.8378 70.8543 30.1878 70.6201 30.3641L69.4442 31.5325C69.3258 31.6509 69.2075 31.7088 69.0312 31.7088C68.8549 31.7088 68.7391 31.6509 68.6207 31.5325L67.7394 30.6562C66.7397 31.3588 65.5637 31.885 64.3273 32.0588V33.2877C64.3273 33.5798 64.0931 33.8139 63.7985 33.8139H62.1516C61.857 33.8139 61.6228 33.5798 61.6228 33.2877V32.1772C60.3285 31.943 59.2129 31.4746 58.2132 30.772L57.2135 31.5904C57.0952 31.7088 56.9768 31.7667 56.8006 31.7667C56.6243 31.7667 56.5664 31.7088 56.448 31.5904L55.2721 30.422C55.0379 30.1878 55.0379 29.8378 55.2721 29.6615L56.1534 28.7827C55.4483 27.7906 54.9195 26.6196 54.7432 25.3908H53.5094C53.2147 25.3908 52.978 25.1566 52.978 24.8645V23.2277C52.978 22.9331 53.2147 22.6989 53.5094 22.6989H54.6853C54.9195 21.4121 55.3904 20.3016 56.0955 19.3069L55.2721 18.3123C55.0379 18.0781 55.0379 17.7281 55.2721 17.5518L56.448 16.3834C56.5664 16.265 56.6822 16.2071 56.861 16.2071C57.0373 16.2071 57.1531 16.265 57.2715 16.3834L58.1528 17.2597C59.1525 16.5571 60.3285 16.0308 61.5649 15.8546V14.6282C61.5649 14.3336 61.7991 14.1019 62.0937 14.1019H63.7406C64.0327 14.1019 64.2694 14.3336 64.2694 14.6282V15.7966C65.5637 16.0308 66.6792 16.4992 67.6789 17.2018L68.5628 16.3229C68.6786 16.2071 68.797 16.1492 68.9733 16.1492C69.1495 16.1492 69.2679 16.2071 69.3837 16.3229L70.5597 17.4939C70.7964 17.7281 70.7964 18.0781 70.5597 18.2544L69.6783 19.1307C70.3834 20.1253 70.9147 21.2963 71.091 22.5251H72.3249C72.6195 22.5251 72.8537 22.7593 72.8537 23.0514V24.8066H72.9142Z" fill="#969696"></path></g><path d="M62.9187 19.3066C60.3301 19.3066 58.2148 21.4118 58.2148 23.9879C58.2148 26.5614 60.3301 28.6666 62.9187 28.6666C65.5049 28.6666 67.6226 26.5614 67.6226 23.9879C67.6226 21.4118 65.5049 19.3066 62.9187 19.3066ZM62.9187 26.3272C61.6244 26.3272 60.5668 25.2746 60.5668 23.9879C60.5668 22.6986 61.6244 21.646 62.9187 21.646C64.2131 21.646 65.2707 22.6986 65.2707 23.9879C65.2707 25.2746 64.2131 26.3272 62.9187 26.3272Z" fill="#969696"></path></svg>